<svg id="Layer_1" data-name="Layer 1" xmlns="http://www.w3.org/2000/svg" viewBox="0 0 512 512"><defs><style>.cls-1{fill:#fff;}</style></defs><title>Artboard 1x</title><path class="cls-1" d="M256,504C119,504,8,393,8,256S119,8,256,8,504,119,504,256,393,504,256,504Zm28.9-143.6L209.4,288H392a23.94,23.94,0,0,0,24-24V248a23.94,23.94,0,0,0-24-24H209.4l75.5-72.4a24,24,0,0,0,.4-34.3l-11-10.9a23.9,23.9,0,0,0-33.9,0L107.7,239a23.9,23.9,0,0,0,0,33.9L240.4,405.6a23.9,23.9,0,0,0,33.9,0l11-10.9A24,24,0,0,0,284.9,360.4Z"/></svg>