<svg id="Layer_1" data-name="Layer 1" xmlns="http://www.w3.org/2000/svg" viewBox="0 0 512 512"><defs><style>.cls-1{fill:#fff;}</style></defs><title>Artboard 1x</title><path class="cls-1" d="M256,8C393,8,504,119,504,256S393,504,256,504,8,393,8,256,119,8,256,8ZM227.1,151.6,302.6,224H120a23.94,23.94,0,0,0-24,24v16a23.94,23.94,0,0,0,24,24H302.6l-75.5,72.4a24,24,0,0,0-.4,34.3l11,10.9a23.9,23.9,0,0,0,33.9,0L404.3,273a23.9,23.9,0,0,0,0-33.9L271.6,106.3a23.9,23.9,0,0,0-33.9,0l-11,10.9A24.15,24.15,0,0,0,227.1,151.6Z"/></svg>