<?xml version="1.0" encoding="UTF-8"?>
<svg viewBox="0 0 409.67 169.71" xmlns="http://www.w3.org/2000/svg">
 <path d="m468.15-9.8216l-3.1375-1.2959-17.294-6.9116c-29.17-11.583-48.762-17.932-81.255-22.787-28.289-4.2309-43.826 0.58286-55.173 4.0903-1.732 0.53325-3.3669 1.0396-4.9026 1.4654-11.5 3.1871-24.466 16.173-25.011 16.719l1.5192 1.5171c0.12814-0.13434 13.114-13.141 24.058-16.173 1.5729-0.42784 3.2285-0.94043 4.975-1.4861 11.14-3.4517 26.406-8.1745 54.21-4.0201 32.289 4.8262 52.04 10.706 81.042 22.219 8.5072 3.3731 13.73 5.2829 19.978 7.8789l1.1161 0.2398c1.6638 0.618 0.87222 1.3187 1.2712 0.2873 0.37198-0.99624-0.4837-1.3621-1.3972-1.7424z"/>
 <g fill="none" stroke="#000" stroke-width=".45">
  <path d="m331.55-40.037s31.908-10.539 64.09-8.5114c32.181 2.0214 161.9 17.806 192.72 28.293"/>
  <path d="m336.58-40.992s28.281-10.51 88.096-7.4924c59.83 3.0094 174.62 27.783 174.62 27.783"/>
  <path d="m357.84-46.525s56.275-1.9015 86.674 1.6184c30.406 3.5447 106.44 14.179 113.35 14.418 6.9013 0.25423 36.102 2.3583 36.102 2.3583"/>
  <path d="m583.31-27.053s-60.204-6.3412-74.978-7.2464c-14.788-0.89909-63.494-6.6161-98.65-8.5589-35.158-1.9429-67.146 5.6116-67.146 5.6116s74.765 25.72 114.37 41.569c39.61 15.851 116.18 51.618 134.01 55.419 17.835 3.7968 30.92 9.1831 30.92 9.1831s-108.88-40.11-136.39-54.625c-27.504-14.512-67.33-27.737-104.04-38.717-36.716-11.002-61.192-10.405-65.175-10.082"/>
  <path d="m319.95-31.534s44.661 6.6987 69.848 13.428c25.187 6.7132 88.857 30.852 113.31 42.47 24.449 11.612 64.6 28.82 80.071 33.415 15.45 4.5946 29.844 10.074 29.844 10.074"/>
  <path d="m334.12-31.344s18.255 2.8544 36.741 6.7008c18.494 3.865 54.687 17.103 73.973 23.339 19.294 6.2378 105.17 45.087 110.96 46.897 5.7893 1.8044 46.463 16.754 51.839 19.511 5.3821 2.7489 8.6168 3.6894 8.6168 3.6894"/>
  <path d="m579.26-32.053s-60.21-6.3432-74.99-7.2547c-14.774-0.90528-63.48-6.616-98.641-8.5672-35.151-1.9429-67.151 5.626-67.151 5.626s74.769 25.714 114.38 41.554c39.605 15.851 116.17 51.626 134.01 55.421 17.841 3.801 30.927 9.1914 30.927 9.1914s-108.89-40.124-136.4-54.625c-27.502-14.52-67.337-27.744-104.04-38.729-36.716-10.988-61.192-10.396-65.177-10.062"/>
  <path d="m315.89-29.283s44.661 6.7008 69.848 13.428c25.187 6.7215 88.869 30.846 113.31 42.464s64.594 28.827 80.054 33.423c15.46 4.5864 29.858 10.08 29.858 10.08"/>
  <path d="m330.07-32.727s18.252 2.8564 36.739 6.7008c18.494 3.8588 54.683 17.112 73.975 23.341 19.288 6.2295 105.17 45.087 110.96 46.891 5.7935 1.8168 46.463 16.754 51.845 19.518 5.3821 2.7551 8.6105 3.677 8.6105 3.677"/>
  <path d="m626.35 42.569s-31.604 2.9763-98.255-21.068c-66.656-24.062-102.22-32.973-109.98-34.936-7.7529-1.9718-92.573-23.285-92.573-23.285"/>
  <path d="m632.64 26.547s-63.021-8.2427-121.26-30.269c-58.23-22.022-103.28-39.977-128.84-42.11-25.567-2.1413-62.742 3.8092-62.742 3.8092"/>
  <path d="m628.7 26.208s-74.951-19.458-119.45-36.044c-44.494-16.591-85.143-27.903-101.92-32.609-16.775-4.6939-48.76-5.0576-48.76-5.0576"/>
  <path d="m631.25 26.202s-63.015-8.2427-121.26-30.269c-58.238-22.022-103.28-39.975-128.85-42.117-25.561-2.133-62.73 3.8113-62.73 3.8113"/>
  <path d="m627.32 25.865s-74.957-19.458-119.46-36.05c-44.492-16.585-85.143-27.903-101.91-32.601-16.768-4.7083-48.762-5.0597-48.762-5.0597"/>
  <path d="m612.83 26.582s-51.13-20.104-92.629-33.148c-41.49-13.042-84.653-25.886-84.653-25.886s-16.824-4.0428-42.586-7.8438c-25.755-3.803-52.639-6.0415-52.639-6.0415"/>
  <path d="m610.83 27.578s-51.138-20.117-92.629-33.159c-41.499-13.036-84.645-25.881-84.645-25.881s-16.837-4.0407-42.592-7.8438c-25.761-3.803-52.645-6.0394-52.645-6.0394"/>
 </g>
 <path d="m481.31-9.1395s-5.0308-5.0928-8.1848-4.5678c-3.1582 0.50638-6.0911 2.9887-6.0911 2.9887s2.3852 4.0903 6.9117 3.493c4.5243-0.60146 7.3642-1.9139 7.3642-1.9139z"/>
 <path d="m469.58 1.5854s0.078583-7.1534-2.5112-9.0219c-2.5898-1.887-6.4177-2.224-6.4177-2.224s-1.2236 4.5657 2.3831 7.3663c3.615 2.8006 6.5458 3.8795 6.5458 3.8795z"/>
 <path d="m459.86-3.127s0.082703-7.1472-2.5154-9.0219c-2.5856-1.8808-6.4114-2.2116-6.4114-2.2116s-1.2277 4.5678 2.3831 7.3746c3.6088 2.7861 6.5437 3.8588 6.5437 3.8588z"/>
 <path d="m449.05-6.558s0.076508-7.1431-2.5112-9.0219c-2.5898-1.8891-6.4156-2.2178-6.4156-2.2178s-1.236 4.5719 2.3789 7.3663c3.6212 2.8068 6.5478 3.8733 6.5478 3.8733z"/>
 <path d="m439.41-9.8898s0.070282-7.1472-2.5113-9.0364c-2.596-1.8664-6.4238-2.2095-6.4238-2.2095s-1.2215 4.5822 2.3832 7.3725c3.6067 2.7841 6.5519 3.8733 6.5519 3.8733z"/>
 <path d="m429.37-13.251s0.068237-7.1493-2.5133-9.0364c-2.5939-1.8891-6.4176-2.2116-6.4176-2.2116s-1.2277 4.5657 2.3914 7.3663c3.6005 2.7944 6.5396 3.8816 6.5396 3.8816z"/>
 <path d="m417.97-16.549s0.078522-7.1555-2.5195-9.0302c-2.5877-1.8746-6.4115-2.2178-6.4115-2.2178s-1.2277 4.574 2.377 7.3725c3.615 2.7944 6.554 3.8754 6.554 3.8754z"/>
 <path d="m406.89-19.025s0.068176-7.1493-2.5195-9.0364c-2.5878-1.8726-6.4135-2.2095-6.4135-2.2095s-1.2215 4.5678 2.3831 7.3725c3.617 2.7923 6.5499 3.8733 6.5499 3.8733z"/>
 <path d="m394.92-22.554s0.076508-7.1555-2.5133-9.0364c-2.5877-1.8809-6.4258-2.2116-6.4258-2.2116s-1.2195 4.574 2.3913 7.3663c3.615 2.8006 6.5478 3.8816 6.5478 3.8816z"/>
 <path d="m383.51-25.844s0.082703-7.1493-2.5071-9.0219c-2.596-1.8891-6.4176-2.224-6.4176-2.224s-1.2278 4.574 2.3831 7.3663c3.615 2.7986 6.5417 3.8795 6.5417 3.8795z"/>
 <path d="m372.72-27.136s0.072327-7.1555-2.5092-9.0384c-2.5981-1.8643-6.4218-2.2095-6.4218-2.2095s-1.2277 4.5802 2.3873 7.3746c3.6108 2.7861 6.5437 3.8733 6.5437 3.8733z"/>
 <path d="m361.54-28.839s-0.71515-7.1204-3.5013-8.6995c-2.7779-1.5791-6.6202-1.4943-6.6202-1.4943s-0.7027 4.6877 3.183 7.0501c3.8981 2.3914 6.9384 3.1437 6.9384 3.1437z"/>
 <path d="m340.82-27.843s-0.70892-7.1204-3.493-8.7077c-2.7944-1.5708-6.6222-1.4861-6.6222-1.4861s-0.70898 4.6794 3.1788 7.0625c3.9063 2.3707 6.9364 3.1313 6.9364 3.1313z"/>
 <path d="m331.15-26.131s-0.71719-7.1204-3.5013-8.6933c-2.7778-1.5791-6.6222-1.4943-6.6222-1.4943s-0.71716 4.6856 3.1851 7.0708c3.8981 2.3645 6.9385 3.1168 6.9385 3.1168z"/>
 <path d="m351.39-28.525s-0.71304-7.1059-3.4992-8.6995c-2.7841-1.5791-6.6223-1.4799-6.6223-1.4799s-0.71515 4.6732 3.1851 7.0522c3.9001 2.3686 6.9364 3.1272 6.9364 3.1272z"/>
 <path d="m322.15-25.712s-0.70892-7.1121-3.493-8.6932c-2.7717-1.5853-6.616-1.4944-6.616-1.4944s-0.70895 4.6794 3.185 7.0584c3.9023 2.379 6.924 3.1292 6.924 3.1292z"/>
 <path d="m472.03-15.384s-5.7976-4.1958-8.8276-3.1706c-3.0322 1.0231-5.5227 3.9622-5.5227 3.9622s3.0342 3.6418 7.3953 2.3087c4.3735-1.3414 6.955-3.1003 6.955-3.1003z"/>
 <path d="m462.05-19.524s-5.7935-4.1958-8.8276-3.1644c-3.03 1.0252-5.5061 3.9498-5.5061 3.9498s3.0239 3.6336 7.387 2.3149c4.3652-1.3393 6.9467-3.1003 6.9467-3.1003z"/>
 <path d="m451.69-23.711s-5.7976-4.1813-8.8276-3.1561c-3.0239 1.0252-5.5062 3.956-5.5062 3.956s3.0239 3.6563 7.387 2.3232c4.3652-1.3435 6.9468-3.123 6.9468-3.123z"/>
 <path d="m441.34-27.886s-5.8037-4.1875-8.8318-3.1561c-3.0155 1.0231-5.5144 3.9581-5.5144 3.9581s3.03 3.648 7.3932 2.3149c4.3653-1.3435 6.953-3.1168 6.953-3.1168z"/>
 <path d="m430.99-32.053s-5.8017-4.1896-8.8338-3.1644c-3.03 1.0376-5.5144 3.9643-5.5144 3.9643s3.032 3.6336 7.3952 2.3004c4.3714-1.3331 6.9529-3.1003 6.9529-3.1003z"/>
 <path d="m419.81-35.542s-5.7935-4.1813-8.8255-3.1644c-3.03 1.0396-5.5165 3.9643-5.5165 3.9643s3.0259 3.648 7.389 2.3087c4.3715-1.3331 6.953-3.1086 6.953-3.1086z"/>
 <path d="m408.76-38.388s-5.7976-4.204-8.8276-3.1788c-3.0321 1.0252-5.5144 3.9581-5.5144 3.9581s3.03 3.6398 7.3953 2.3149c4.3693-1.3393 6.9467-3.0941 6.9467-3.0941z"/>
 <path d="m397.71-41.267s-5.7956-4.202-8.8193-3.1644c-3.0404 1.0252-5.5144 3.9581-5.5144 3.9581s3.03 3.6356 7.3932 2.3004c4.3673-1.3311 6.9406-3.0941 6.9406-3.0941z"/>
 <path d="m386.21-43.398s-5.7893-4.1957-8.8214-3.1644c-3.0321 1.0252-5.5144 3.9705-5.5144 3.9705s3.0239 3.6336 7.3932 2.2942c4.3591-1.3249 6.9427-3.1003 6.9427-3.1003z"/>
 <path d="m373.85-45.756s-6.0952-3.739-9.0446-2.4823c-2.9452 1.269-5.1981 4.3776-5.1981 4.3776s3.2904 3.3959 7.5399 1.7341c4.2619-1.6638 6.7029-3.6294 6.7029-3.6294z"/>
 <path d="m360.85-48.429s-6.9095-1.8085-9.365 0.25422c-2.4492 2.0627-3.7038 5.688-3.7038 5.688s4.1338 2.286 7.7239-0.53945c3.5902-2.813 5.3449-5.4028 5.3449-5.4028z"/>
 <path d="m349.52-47.817s-6.9261-1.8106-9.3815 0.25216c-2.4389 2.0545-3.6976 5.6901-3.6976 5.6901s4.142 2.2942 7.7239-0.53326c3.586-2.8213 5.3552-5.409 5.3552-5.409z"/>
 <path d="m338.19-47.207s-6.9323-1.8085-9.3794 0.25216c-2.4513 2.0565-3.7059 5.6839-3.7059 5.6839s4.1461 2.3087 7.7239-0.53325c3.6005-2.8151 5.3614-5.4028 5.3614-5.4028z"/>
 <path d="m325.6-44.746s-6.9653-1.608-9.3588 0.53326c-2.3748 2.1268-3.5281 5.7955-3.5281 5.7955s4.2081 2.1682 7.7094-0.76474c3.5034-2.9329 5.1775-5.564 5.1775-5.564z"/>
 <path d="m-49.479-9.8216l3.1375-1.2959 17.294-6.9116c29.172-11.583 48.76-17.932 81.257-22.787 28.287-4.2309 43.83 0.58286 55.173 4.0903 1.732 0.53325 3.3669 1.0396 4.9026 1.4654 11.498 3.1871 24.466 16.173 25.011 16.719l-1.5212 1.5171c-0.12608-0.13434-13.112-13.141-24.058-16.173-1.5708-0.42784-3.2264-0.94043-4.9729-1.4861-11.14-3.4517-26.408-8.1745-54.212-4.0201-32.287 4.8262-52.036 10.706-81.04 22.219-8.5093 3.3731-13.73 5.2829-19.98 7.8789l-1.1161 0.2398c-1.6638 0.618-0.87015 1.3187-1.2711 0.2873-0.36998-0.99624 0.4857-1.3621 1.3972-1.7424z"/>
 <g fill="none" stroke="#000" stroke-width=".45">
  <path d="m87.112-40.037s-31.908-10.539-64.09-8.5114c-32.181 2.0214-161.9 17.806-192.72 28.293"/>
  <path d="m82.09-40.992s-28.281-10.51-88.098-7.4924c-59.832 3.0094-174.62 27.783-174.62 27.783"/>
  <path d="m60.83-46.525s-56.275-1.9015-86.674 1.6184c-30.406 3.5447-106.44 14.179-113.35 14.418-6.9034 0.25423-36.104 2.3583-36.104 2.3583"/>
  <path d="m-164.64-27.053s60.202-6.3412 74.978-7.2464c14.79-0.89909 63.492-6.6161 98.65-8.5589 35.155-1.9429 67.148 5.6116 67.148 5.6116s-74.767 25.72-114.37 41.569c-39.612 15.851-116.18 51.618-134.02 55.419-17.835 3.7968-30.918 9.1831-30.918 9.1831s108.88-40.11 136.39-54.625c27.502-14.512 67.332-27.737 104.04-38.717 36.714-11.002 61.192-10.405 65.179-10.082"/>
  <path d="m98.722-31.534s-44.663 6.6987-69.848 13.428c-25.187 6.7132-88.855 30.852-113.31 42.47-24.449 11.612-64.6 28.82-80.07 33.415-15.45 4.5946-29.846 10.074-29.846 10.074"/>
  <path d="m84.552-31.344s-18.255 2.8544-36.743 6.7008c-18.492 3.865-54.687 17.103-73.973 23.339-19.294 6.2378-105.17 45.087-110.96 46.897-5.7893 1.8044-46.465 16.754-51.841 19.511-5.3821 2.7489-8.6147 3.6894-8.6147 3.6894"/>
  <path d="m-160.59-32.053s60.208-6.3432 74.99-7.2547c14.776-0.90528 63.48-6.616 98.643-8.5672 35.149-1.9429 67.146 5.626 67.146 5.626s-74.767 25.714-114.38 41.556c-39.603 15.851-116.17 51.624-134.01 55.421-17.841 3.801-30.924 9.1914-30.924 9.1914s108.88-40.124 136.39-54.625c27.502-14.52 67.336-27.744 104.04-38.729 36.714-10.988 61.19-10.396 65.177-10.062"/>
  <path d="m102.78-29.283s-44.661 6.7008-69.848 13.428c-25.187 6.7215-88.869 30.846-113.31 42.464-24.443 11.618-64.596 28.827-80.056 33.423-15.462 4.5864-29.86 10.08-29.86 10.08"/>
  <path d="m88.6-32.727s-18.257 2.8564-36.743 6.7008c-18.492 3.8588-54.681 17.112-73.973 23.341-19.288 6.2295-105.17 45.087-110.96 46.889-5.7955 1.8168-46.465 16.754-51.845 19.518-5.3821 2.7551-8.6085 3.677-8.6085 3.677"/>
  <path d="m-207.69 42.569s31.607 2.9763 98.257-21.068c66.657-24.062 102.22-32.973 109.98-34.936 7.7508-1.9718 92.573-23.285 92.573-23.285"/>
  <path d="m-213.97 26.547s63.023-8.2427 121.26-30.269c58.232-22.022 103.28-39.977 128.85-42.11 25.567-2.1413 62.742 3.8092 62.742 3.8092"/>
  <path d="m-210.04 26.208s74.951-19.458 119.45-36.044c44.494-16.591 85.143-27.903 101.92-32.609 16.775-4.6939 48.76-5.0576 48.76-5.0576"/>
  <path d="m-212.58 26.202s63.017-8.2427 121.26-30.269c58.238-22.022 103.28-39.975 128.85-42.117 25.557-2.133 62.728 3.8113 62.728 3.8113"/>
  <path d="m-208.65 25.865s74.957-19.458 119.46-36.05c44.494-16.585 85.145-27.903 101.91-32.601 16.766-4.7083 48.76-5.0597 48.76-5.0597"/>
  <path d="m-194.17 26.582s51.13-20.104 92.629-33.148c41.492-13.042 84.653-25.886 84.653-25.886s16.824-4.0428 42.586-7.8438c25.753-3.803 52.639-6.0415 52.639-6.0415"/>
  <path d="m-192.17 27.578s51.138-20.117 92.629-33.159c41.499-13.036 84.647-25.881 84.647-25.881s16.837-4.0407 42.592-7.8438c25.762-3.803 52.647-6.0394 52.647-6.0394"/>
 </g>
 <path d="m-62.641-9.1395s5.0308-5.0928 8.1869-4.5678c3.1582 0.50638 6.089 2.9887 6.089 2.9887s-2.3831 4.0903-6.9096 3.493c-4.5244-0.60146-7.3663-1.9139-7.3663-1.9139z"/>
 <path d="m-50.917 1.5854s-0.078548-7.1534 2.5112-9.0219c2.5877-1.887 6.4176-2.224 6.4176-2.224s1.2215 4.5657-2.3852 7.3663c-3.6108 2.8006-6.5437 3.8795-6.5437 3.8795z"/>
 <path d="m-41.186-3.127s-0.08474-7.1472 2.5113-9.0219c2.5898-1.8808 6.4135-2.2116 6.4135-2.2116s1.2277 4.5678-2.3852 7.3746c-3.6067 2.7861-6.5396 3.8588-6.5396 3.8588z"/>
 <path d="m-30.381-6.558s-0.078527-7.1431 2.5113-9.0219c2.5877-1.8891 6.4114-2.2178 6.4114-2.2178s1.236 4.5719-2.379 7.3663c-3.617 2.8068-6.5437 3.8733-6.5437 3.8733z"/>
 <path d="m-20.741-9.8898s-0.070261-7.1472 2.5113-9.0364c2.596-1.8664 6.4259-2.2095 6.4259-2.2095s1.2215 4.5822-2.3852 7.3725c-3.6067 2.7841-6.552 3.8733-6.552 3.8733z"/>
 <path d="m-10.702-13.251s-0.072351-7.1493 2.5112-9.0364c2.5939-1.8891 6.4197-2.2116 6.4197-2.2116s1.2277 4.5657-2.3914 7.3663c-3.6005 2.7944-6.5396 3.8816-6.5396 3.8816z"/>
 <path d="m0.6986-16.549s-0.076479-7.1555 2.5195-9.0302c2.5877-1.8746 6.4135-2.2178 6.4135-2.2178s1.2277 4.574-2.379 7.3725c-3.6149 2.7944-6.554 3.8754-6.554 3.8754z"/>
 <path d="m11.783-19.025s-0.070266-7.1493 2.5174-9.0364c2.5898-1.8726 6.4135-2.2095 6.4135-2.2095s1.2215 4.5678-2.3852 7.3725c-3.6129 2.7923-6.5458 3.8733-6.5458 3.8733z"/>
 <path d="m23.752-22.554s-0.078527-7.1555 2.5112-9.0364c2.5877-1.8809 6.4259-2.2116 6.4259-2.2116s1.2215 4.574-2.3914 7.3663c-3.6129 2.8006-6.5458 3.8816-6.5458 3.8816z"/>
 <path d="m35.16-25.844s-0.084743-7.1493 2.503-9.0219c2.596-1.8891 6.4197-2.224 6.4197-2.224s1.2277 4.574-2.3852 7.3663c-3.6108 2.7986-6.5375 3.8795-6.5375 3.8795z"/>
 <path d="m45.944-27.136s-0.072334-7.1555 2.5112-9.0384c2.596-1.8643 6.4197-2.2095 6.4197-2.2095s1.2277 4.5802-2.3852 7.3746c-3.615 2.7861-6.5458 3.8733-6.5458 3.8733z"/>
 <path d="m57.126-28.839s0.71512-7.1204 3.4992-8.6995c2.7779-1.5791 6.6243-1.4943 6.6243-1.4943s0.70068 4.6877-3.185 7.0501c-3.9002 2.3914-6.9385 3.1437-6.9385 3.1437z"/>
 <path d="m77.844-27.843s0.70895-7.1204 3.493-8.7077c2.7923-1.5708 6.6222-1.4861 6.6222-1.4861s0.70894 4.6794-3.1768 7.0625c-3.9084 2.3707-6.9385 3.1313-6.9385 3.1313z"/>
 <path d="m87.52-26.131s0.71513-7.1204 3.4992-8.6933c2.7799-1.5791 6.6223-1.4943 6.6223-1.4943s0.71721 4.6856-3.185 7.0708c-3.9002 2.3645-6.9364 3.1168-6.9364 3.1168z"/>
 <path d="m67.27-28.525s0.71721-7.1059 3.5013-8.6995c2.7841-1.5791 6.6223-1.4799 6.6223-1.4799s0.71512 4.6732-3.185 7.0522c-3.9002 2.3686-6.9385 3.1272-6.9385 3.1272z"/>
 <path d="m96.521-25.712s0.70894-7.1121 3.493-8.6932c2.7717-1.5853 6.6161-1.4944 6.6161-1.4944s0.70891 4.6794-3.185 7.0584c-3.9002 2.379-6.924 3.1292-6.924 3.1292z"/>
 <path d="m-53.358-15.384s5.7955-4.1958 8.8256-3.1706c3.03 1.0231 5.5206 3.9622 5.5206 3.9622s-3.03 3.6418-7.3953 2.3087c-4.3694-1.3414-6.9509-3.1003-6.9509-3.1003z"/>
 <path d="m-43.382-19.524s5.7955-4.1958 8.8255-3.1644c3.03 1.0252 5.5082 3.9498 5.5082 3.9498s-3.0238 3.6336-7.387 2.3149c-4.3652-1.3393-6.9468-3.1003-6.9468-3.1003z"/>
 <path d="m-33.026-23.711s5.7955-4.1813 8.8255-3.1561c3.0238 1.0252 5.5082 3.956 5.5082 3.956s-3.0238 3.6563-7.3891 2.3232c-4.3632-1.3435-6.9447-3.123-6.9447-3.123z"/>
 <path d="m-22.678-27.886s5.8038-4.1875 8.8338-3.1561c3.0156 1.0231 5.5123 3.9581 5.5123 3.9581s-3.03 3.648-7.3932 2.3149c-4.3652-1.3435-6.9529-3.1168-6.9529-3.1168z"/>
 <path d="m-12.323-32.053s5.8038-4.1896 8.8338-3.1644c3.03 1.0376 5.5123 3.9643 5.5123 3.9643s-3.03 3.6336-7.3932 2.3004c-4.3714-1.3331-6.953-3.1003-6.953-3.1003z"/>
 <path d="m-1.1471-35.542s5.7955-4.1813 8.8276-3.1644c3.03 1.0396 5.5144 3.9643 5.5144 3.9643s-3.0238 3.648-7.389 2.3087c-4.3694-1.3331-6.953-3.1086-6.953-3.1086z"/>
 <path d="m9.9106-38.388s5.7955-4.204 8.8276-3.1788 5.5123 3.9581 5.5123 3.9581-3.03 3.6398-7.3932 2.3149c-4.3735-1.3393-6.9468-3.0941-6.9468-3.0941z"/>
 <path d="m20.96-41.267s5.7955-4.202 8.8193-3.1644c3.0362 1.0252 5.5123 3.9581 5.5123 3.9581s-3.03 3.6356-7.3932 2.3004c-4.3632-1.3311-6.9385-3.0941-6.9385-3.0941z"/>
 <path d="m32.458-43.398s5.7872-4.1957 8.8193-3.1644c3.0321 1.0252 5.5144 3.9705 5.5144 3.9705s-3.0238 3.6336-7.3953 2.2942c-4.3549-1.3249-6.9385-3.1003-6.9385-3.1003z"/>
 <path d="m44.814-45.756s6.0973-3.739 9.0426-2.4823c2.9474 1.269 5.1982 4.3776 5.1982 4.3776s-3.2904 3.3959-7.5399 1.7341c-4.2598-1.6638-6.7008-3.6294-6.7008-3.6294z"/>
 <path d="m57.814-48.429s6.9116-1.8085 9.365 0.25422c2.4493 2.0627 3.7038 5.688 3.7038 5.688s-4.1317 2.286-7.7239-0.53945c-3.5902-2.813-5.3449-5.4028-5.3449-5.4028z"/>
 <path d="m69.143-47.817s6.9261-1.8106 9.3815 0.25216c2.441 2.0545 3.6976 5.6901 3.6976 5.6901s-4.14 2.2942-7.726-0.53326c-3.5839-2.8213-5.3532-5.409-5.3532-5.409z"/>
 <path d="m80.482-47.207s6.9323-1.8085 9.3815 0.25216c2.4492 2.0565 3.7038 5.6839 3.7038 5.6839s-4.1461 2.3087-7.7239-0.53325c-3.6005-2.8151-5.3614-5.4028-5.3614-5.4028z"/>
 <path d="m93.069-44.746s6.9674-1.608 9.3588 0.53326c2.3769 2.1268 3.5281 5.7955 3.5281 5.7955s-4.2081 2.1682-7.7094-0.76474c-3.5034-2.9329-5.1775-5.564-5.1775-5.564z"/>
 <path d="m-46.872 62.821l2.596-2.1847 14.39-11.825c24.288-19.879 41.036-31.863 70.532-46.335 25.677-12.602 41.943-12.724 53.819-12.819 1.8106-0.016533 3.5261-0.026863 5.1176-0.086803 11.924-0.44851 28.213 8.0029 28.901 8.3564l-0.9921 1.9036c-0.16118-0.088875-16.477-8.5486-27.826-8.1207-1.6266 0.066143-3.3607 0.080612-5.1899 0.086815-11.665 0.086807-27.642 0.21082-52.881 12.593-29.31 14.381-46.348 25.968-70.499 45.725-7.0894 5.7955-11.486 9.1955-16.655 13.563l-0.9942 0.5684c-1.3951 1.0913-0.42784 1.5192-1.1223 0.6552-0.6552-0.83707 0.04961-1.4427 0.80401-2.0813z"/>
 <g fill="none" stroke="#000" stroke-width=".45">
  <path d="m74.147-7.3579s-33.601-0.37617-63.658 11.306c-30.056 11.678-148.9 66.022-175.09 85.354"/>
  <path d="m69.071-6.744s-30.137-1.4489-86.228 19.548c-56.107 20.995-157.99 79.38-157.99 79.38"/>
  <path d="m47.133-5.5804s-54.204 15.239-82.111 27.806c-27.903 12.587-97.137 45.756-103.65 48.08-6.5024 2.3314-33.694 13.187-33.694 13.187"/>
  <path d="m-161.84 81.29s55.454-24.284 69.259-29.622c13.823-5.3346 58.505-25.54 91.42-38.043 32.915-12.505 65.691-14.995 65.691-14.995s-63.463 47.162-96.405 74.265c-32.946 27.109-95.08 84.392-110.93 93.422-15.847 9.0157-26.681 18.114-26.681 18.114s91.608-71.208 113.43-93.377c21.812-22.163 55.76-46.831 87.416-68.416 31.654-21.609 55.165-28.457 59.059-29.356"/>
  <path d="m87.784-2.7736s-40.533 19.916-62.496 33.959c-21.971 14.028-75.333 56.322-95.115 74.802-19.784 18.47-52.831 47.038-66.183 56.103-13.329 9.057-25.389 18.641-25.389 18.641"/>
  <path d="m74.341 1.7033s-16.535 8.251-32.989 17.515c-16.45 9.2885-46.934 32.869-63.422 44.659-16.498 11.785-86.565 74.825-91.54 78.312-4.9708 3.4661-39.208 30.04-43.493 34.294-4.295 4.2515-7.0935 6.1324-7.0935 6.1324"/>
  <path d="m-159.5 75.298s55.456-24.286 69.271-29.635c13.807-5.3387 58.49-25.536 91.409-38.047 32.907-12.5 65.696-14.983 65.696-14.983s-63.461 47.158-96.411 74.256c-32.94 27.105-95.068 84.392-110.92 93.414-15.851 9.0302-26.687 18.128-26.687 18.128s91.612-71.226 113.43-93.379c21.81-22.171 55.764-46.842 87.42-68.432 31.658-21.595 55.165-28.448 59.067-29.337"/>
  <path d="m92.335-1.8538s-40.533 19.918-62.5 33.961c-21.967 14.036-75.346 56.32-95.119 74.796-19.774 18.478-52.825 47.044-66.169 56.109-13.348 9.0591-25.4 18.647-25.4 18.647"/>
  <path d="m77.778-0.8411s-16.533 8.251-32.983 17.517c-16.456 9.2823-46.928 32.876-63.428 44.655-16.494 11.783-86.565 74.833-91.536 78.305-4.9708 3.4868-39.204 30.04-43.493 34.308-4.295 4.2578-7.0935 6.1096-7.0935 6.1096"/>
  <path d="m-181.77 160.68s31.022-6.7421 87.255-49.849c56.235-43.121 87.426-62.388 94.224-66.611 6.7917-4.2268 81.17-50.242 81.17-50.242"/>
  <path d="m-192.61 147.31s57.564-26.946 106.39-65.582c48.822-38.628 86.315-69.385 110.03-79.165 23.717-9.7825 60.95-15.373 60.95-15.373"/>
  <path d="m-188.97 145.8s65.532-41.251 102.92-70.542c37.375-29.29 72.686-52.383 87.249-61.952 14.565-9.5551 44.936-19.592 44.936-19.592"/>
  <path d="m-191.39 146.57s57.554-26.948 106.39-65.584c48.83-38.634 86.315-69.387 110.03-79.174 23.711-9.7763 60.938-15.373 60.938-15.373"/>
  <path d="m-187.75 145.05s65.538-41.251 102.93-70.544c37.375-29.288 72.686-52.387 87.243-61.946 14.551-9.5655 44.936-19.594 44.936-19.594"/>
  <path d="m-173.73 141.35s42.635-34.649 78.233-59.65c35.592-25.001 72.83-50.32 72.83-50.32s14.809-8.9475 38.208-20.377c23.395-11.426 48.336-21.702 48.336-21.702"/>
  <path d="m-171.52 141.69s42.638-34.666 78.229-59.664c35.6-24.997 72.826-50.31 72.826-50.31s14.822-8.9537 38.216-20.381c23.397-11.43 48.338-21.706 48.338-21.706"/>
 </g>
 <path d="m-59.21 67.459s3.2512-6.3784 6.4197-6.8331c3.1644-0.47744 6.7111 1.0024 6.7111 1.0024s-1.0355 4.6195-5.5289 5.4235c-4.4934 0.79575-7.602 0.40717-7.602 0.40717z"/>
 <path d="m-44.785 74.13s-2.2405-6.8-0.33897-9.3629c1.8933-2.5815 5.4441-4.0614 5.4441-4.0614s2.5443 3.9808-0.043407 7.7425c-2.596 3.7638-5.0618 5.6818-5.0618 5.6818z"/>
 <path d="m-36.941 66.686s-2.2446-6.7876-0.33897-9.3588c1.8974-2.5753 5.4441-4.0469 5.4441-4.0469s2.5546 3.9808-0.043407 7.7487c-2.5918 3.7452-5.0618 5.657-5.0618 5.657z"/>
 <path d="m-27.684 60.144s-2.2384-6.7835-0.34103-9.3588c1.8953-2.5815 5.44-4.0552 5.44-4.0552s2.5608 3.9849-0.035131 7.7425c-2.5981 3.77-5.0638 5.6715-5.0638 5.6715z"/>
 <path d="m-19.507 54.049s-2.2322-6.7917-0.34516-9.3732c1.9077-2.565 5.4545-4.0511 5.4545-4.0511s2.5546 3.9953-0.039264 7.7487c-2.5898 3.7452-5.07 5.6756-5.07 5.6756z"/>
 <path d="m-10.959 47.805s-2.2322-6.7917-0.3431-9.3733c1.9036-2.5856 5.4503-4.0511 5.4503-4.0511s2.5526 3.9808-0.049605 7.7446c-2.5857 3.7534-5.0576 5.6798-5.0576 5.6798z"/>
 <path d="m-1.0913 41.209s-2.2426-6.7979-0.3369-9.3691c1.8994-2.567 5.44-4.0552 5.44-4.0552s2.5567 3.9891-0.033082 7.7487c-2.596 3.7514-5.07 5.6756-5.07 5.6756z"/>
 <path d="m8.7242 35.49s-2.2343-6.7959-0.34104-9.3774c1.8994-2.567 5.4441-4.0469 5.4441-4.0469s2.5464 3.9808-0.043396 7.7487c-2.5939 3.7576-5.0597 5.6756-5.0597 5.6756z"/>
 <path d="m19.059 28.5s-2.2426-6.7938-0.34517-9.3733c1.8974-2.5732 5.4545-4.0511 5.4545-4.0511s2.5505 3.987-0.045477 7.7446c-2.5939 3.7617-5.0638 5.6798-5.0638 5.6798z"/>
 <path d="m28.934 21.907s-2.2446-6.7876-0.34516-9.3588c1.9015-2.5815 5.4441-4.0614 5.4441-4.0614s2.5526 3.9891-0.043396 7.7425c-2.5918 3.7638-5.0556 5.6777-5.0556 5.6777z"/>
 <path d="m38.818 17.412s-2.2364-6.7979-0.34516-9.3732c1.9077-2.5629 5.4524-4.0511 5.4524-4.0511s2.5567 3.9973-0.041328 7.7508c-2.5981 3.7472-5.0659 5.6736-5.0659 5.6736z"/>
 <path d="m48.96 12.399s-1.4737-7.0067 0.70068-9.3526c2.1723-2.348 5.8575-3.431 5.8575-3.431s2.0917 4.2557-0.89704 7.6846c-2.9907 3.4641-5.6612 5.099-5.6612 5.099z"/>
 <path d="m69.007 7.0709s-1.484-7.0026 0.69033-9.3567c2.1847-2.3418 5.8616-3.4227 5.8616-3.4227s2.0896 4.2454-0.88669 7.697c-3.0052 3.4434-5.6653 5.0824-5.6653 5.0824z"/>
 <path d="m78.746 5.7708s-1.4737-7.0046 0.70273-9.3443c2.1702-2.3459 5.8596-3.431 5.8596-3.431s2.102 4.2474-0.89291 7.7032c-3.0031 3.4351-5.6694 5.0721-5.6694 5.0721z"/>
 <path d="m58.726 9.6235s-1.4737-6.9881 0.69651-9.3484c2.1785-2.35 5.8658-3.4165 5.8658-3.4165s2.0979 4.233-0.89912 7.6805c-2.997 3.4434-5.6632 5.0845-5.6632 5.0845z"/>
 <path d="m87.451 3.4477s-1.4799-6.9964 0.69447-9.3464c2.1599-2.35 5.8555-3.4269 5.8555-3.4269s2.0896 4.2433-0.89909 7.6929c-2.997 3.4475-5.6508 5.0804-5.6508 5.0804z"/>
 <path d="m-52.253 58.697s4.2516-5.7583 7.4511-5.6984 6.459 2.1061 6.459 2.1061-1.7837 4.388-6.3494 4.4396c-4.5678 0.045471-7.5606-0.84742-7.5606-0.84742z"/>
 <path d="m-44 51.73s4.2516-5.7583 7.4511-5.6901c3.1995 0.055805 6.4445 2.0937 6.4445 2.0937s-1.7775 4.3818-6.3391 4.4438c-4.5636 0.045479-7.5565-0.84742-7.5565-0.84742z"/>
 <path d="m-35.401 44.597s4.2557-5.7376 7.4552-5.6818c3.1912 0.064072 6.4486 2.1041 6.4486 2.1041s-1.7754 4.3983-6.337 4.452c-4.5636 0.045471-7.5668-0.87428-7.5668-0.87428z"/>
 <path d="m-26.805 37.487s4.2619-5.748 7.4614-5.686c3.185 0.06407 6.4548 2.102 6.4548 2.102s-1.7816 4.3942-6.3453 4.4438c-4.5616 0.045471-7.571-0.85982-7.571-0.85982z"/>
 <path d="m-18.199 30.377s4.2619-5.75 7.4614-5.6901c3.2016 0.070274 6.4548 2.1041 6.4548 2.1041s-1.7858 4.3818-6.3494 4.4355c-4.5719 0.051666-7.5668-0.84948-7.5668-0.84948z"/>
 <path d="m-8.6044 23.67s4.2598-5.7438 7.4552-5.6901c3.2016 0.070274 6.4548 2.1041 6.4548 2.1041s-1.7754 4.3942-6.3391 4.4376c-4.5719 0.055809-7.571-0.85156-7.571-0.85156z"/>
 <path d="m1.0706 17.604s4.2516-5.7604 7.4511-5.7046c3.1954 0.059946 6.4507 2.102 6.4507 2.102s-1.7816 4.388-6.3412 4.4438c-4.576 0.04961-7.5606-0.84121-7.5606-0.84121z"/>
 <path d="m10.731 11.515s4.2474-5.7604 7.4428-5.686c3.2078 0.055807 6.4569 2.0958 6.4569 2.0958s-1.7858 4.3838-6.3515 4.4355c-4.5636 0.053741-7.5482-0.84534-7.5482-0.84534z"/>
 <path d="m21.045 5.9961s4.2454-5.748 7.4449-5.686c3.1995 0.059935 6.459 2.1144 6.459 2.1144s-1.7796 4.3776-6.3536 4.4272c-4.5554 0.057871-7.5503-0.85568-7.5503-0.85568z"/>
 <path d="m32.103 0.0084s4.6773-5.4131 7.8665-5.1072c3.1933 0.3183 6.2792 2.5981 6.2792 2.5981s-2.1041 4.2309-6.6615 3.9353c-4.5636-0.2935-7.4842-1.4261-7.4842-1.4261z"/>
 <path d="m43.681-6.4774s6.0394-3.8196 9.0033-2.596c2.9577 1.2236 5.2519 4.3012 5.2519 4.3012s-3.245 3.431-7.5255 1.823c-4.2743-1.5915-6.7297-3.5282-6.7297-3.5282z"/>
 <path d="m54.665-9.3297s6.0497-3.8237 9.0198-2.6001c2.9453 1.2174 5.2436 4.3012 5.2436 4.3012s-3.2491 3.4413-7.5234 1.8312c-4.2722-1.5977-6.7401-3.5323-6.7401-3.5323z"/>
 <path d="m65.654-12.18s6.058-3.8299 9.0157-2.6042c2.9577 1.2174 5.256 4.295 5.256 4.295s-3.2574 3.4537-7.5255 1.8333c-4.2846-1.5936-6.7462-3.524-6.7462-3.524z"/>
 <path d="m78.394-13.647s6.153-3.6398 9.0818-2.3294c2.9102 1.3063 5.1176 4.4562 5.1176 4.4562s-3.3545 3.3401-7.5792 1.606c-4.2247-1.732-6.6202-3.7328-6.6202-3.7328z"/>
 <path d="m-7.4408 130.49l1.6742-2.9474 9.3795-16.093c15.859-27.088 27.392-44.146 50.012-67.977 19.693-20.743 34.903-26.516 46.004-30.732 1.6928-0.649 3.2925-1.2525 4.7662-1.8622 11.023-4.5678 29.236-2.3128 30.003-2.2178l-0.2666 2.1289c-0.18192-0.024799-18.424-2.2839-28.911 2.0627-1.5068 0.62833-3.123 1.2463-4.8365 1.887-10.905 4.14-25.842 9.8114-45.2 30.199-22.479 23.678-34.424 40.467-50.196 67.388-4.6339 7.9016-7.5689 12.616-10.899 18.509l-0.7317 0.8784c-0.93008 1.5067 0.12609 1.5708-0.82467 1.0024-0.90529-0.54979-0.45678-1.3641 0.026869-2.226z"/>
 <g fill="none" stroke="#000" stroke-width=".45">
  <path d="m81.616 22.61s-31.636 11.335-55.752 32.739c-24.116 21.402-116.64 113.69-134.48 140.92"/>
  <path d="m77.072 24.951s-28.76 9.1232-74.044 48.317c-45.306 39.2-120.52 129.38-120.52 129.38"/>
  <path d="m56.909 33.674s-45.523 33.14-67.316 54.625c-21.783 21.504-75.158 76.685-80.459 81.127-5.2829 4.4458-27.002 24.077-27.002 24.077"/>
  <path d="m-108.81 187.8s43.547-42.052 54.636-51.86c11.103-9.8073 45.971-44.293 72.479-67.463 26.514-23.174 56.376-36.906 56.376-36.906s-43.096 66.293-64.554 103.16c-21.462 36.875-59.792 112.19-71.514 126.17-11.715 13.96-18.711 26.266-18.711 26.266s61.122-98.629 73.874-127c12.744-28.366 35.994-63.298 58.168-94.547 22.163-31.27 41.825-45.866 45.161-48.061"/>
  <path d="m95.998 22.165s-31.075 32.77-46.784 53.575c-15.719 20.795-51.039 79.008-63.157 103.21-12.126 24.203-33.177 62.475-42.54 75.623-9.3485 13.127-17.322 26.309-17.322 26.309"/>
  <path d="m84.948 31.04s-12.629 13.484-24.836 27.89c-12.194 14.431-32.576 47.143-43.929 63.93-11.37 16.789-55.138 100.26-58.59 105.26-3.4538 4.9812-26.311 41.8-28.851 47.284-2.5464 5.4793-4.5202 8.2117-4.5202 8.2117"/>
  <path d="m-108.69 181.36s43.547-42.052 54.64-51.876c11.089-9.8073 45.957-44.285 72.469-67.461 26.506-23.166 56.382-36.896 56.382-36.896s-43.098 66.284-64.565 103.15c-21.454 36.867-59.782 112.19-71.505 126.16-11.723 13.982-18.718 26.282-18.718 26.282s61.122-98.644 73.876-127c12.736-28.372 35.994-63.314 58.164-94.566 22.169-31.255 41.823-45.86 45.174-48.048"/>
  <path d="m100.58 21.444s-31.073 32.772-46.786 53.577c-15.716 20.797-51.058 79.01-63.17 103.21-12.112 24.207-33.163 62.482-42.522 75.616-9.365 13.141-17.329 26.324-17.329 26.324"/>
  <path d="m87.288 27.458s-12.633 13.484-24.833 27.894c-12.201 14.425-32.566 47.143-43.936 63.922-11.366 16.789-55.136 100.27-58.59 105.25-3.4455 5.0039-26.307 41.809-28.845 47.296-2.5464 5.4855-4.5244 8.1951-4.5244 8.1951"/>
  <path d="m-99.88 269.16s26.741-17.105 64.472-77.082c37.727-59.985 60.272-88.896 65.177-95.219 4.8964-6.3267 58.629-75.337 58.629-75.337"/>
  <path d="m-114.7 260.41s44.599-45.287 76.939-98.493c32.338-53.199 56.796-95.074 75.631-112.49 18.833-17.422 51.798-35.612 51.798-35.612"/>
  <path d="m-111.8 257.72s47.094-61.467 71.96-101.93c24.852-40.461 49.927-74.393 60.256-88.431 10.33-14.022 35.314-33.996 35.314-33.996"/>
  <path d="m-113.81 259.28s44.589-45.279 76.939-98.486c32.344-53.207 56.796-95.076 75.629-112.51 18.831-17.411 51.783-35.608 51.783-35.608"/>
  <path d="m-110.92 256.6s47.1-61.473 71.968-101.95c24.856-40.453 49.927-74.393 60.253-88.417 10.314-14.032 35.312-34.004 35.312-34.004"/>
  <path d="m-99.065 248.24s27.921-47.317 52.604-83.14c24.674-35.815 50.783-72.506 50.783-72.506s10.768-13.54 28.732-32.396c17.961-18.848 37.77-37.158 37.77-37.158"/>
  <path d="m-96.876 247.79s27.919-47.327 52.598-83.146c24.68-35.815 50.779-72.496 50.779-72.496s10.783-13.548 28.744-32.4c17.961-18.854 37.77-37.166 37.77-37.166"/>
 </g>
 <path d="m-17.395 139.14s0.83088-7.1121 3.6439-8.6436c2.7985-1.544 6.6388-1.391 6.6388-1.391s0.63659 4.6877-3.2967 7.0108c-3.9353 2.3087-6.986 3.0238-6.986 3.0238z"/>
 <path d="m-1.5502 140.37s-4.4665-5.5909-3.5736-8.656c0.87636-3.0796 3.6894-5.7046 3.6894-5.7046s3.7762 2.8481 2.6559 7.2754c-1.1264 4.4334-2.7717 7.0852-2.7717 7.0852z"/>
 <path d="m3.2181 130.67s-4.4665-5.5847-3.5757-8.656c0.88462-3.0734 3.6997-5.6901 3.6997-5.6901s3.7762 2.8461 2.6539 7.2816c-1.1306 4.4128-2.7779 7.0646-2.7779 7.0646z"/>
 <path d="m9.6192 121.32s-4.4582-5.5847-3.5736-8.6581c0.88255-3.0796 3.6935-5.6942 3.6935-5.6942s3.7865 2.8461 2.6601 7.2692c-1.1285 4.4376-2.7799 7.0832-2.7799 7.0832z"/>
 <path d="m15.165 112.75s-4.452-5.5888-3.5798-8.6664c0.89703-3.0672 3.7038-5.6942 3.7038-5.6942s3.7865 2.8543 2.6601 7.2795c-1.1285 4.4128-2.7841 7.0811-2.7841 7.0811z"/>
 <path d="m21.01 103.93s-4.4562-5.5929-3.5819-8.6664c0.88669-3.0879 3.7018-5.6942 3.7018-5.6942s3.7824 2.8419 2.6497 7.2774c-1.1202 4.4169-2.7696 7.0832-2.7696 7.0832z"/>
 <path d="m27.969 94.311s-4.4686-5.595-3.5736-8.6664c0.88669-3.0693 3.6914-5.6922 3.6914-5.6922s3.7844 2.8482 2.6663 7.2754c-1.1368 4.421-2.7841 7.0832-2.7841 7.0832z"/>
 <path d="m35.182 85.538s-4.4603-5.595-3.5819-8.6746c0.89082-3.0693 3.6976-5.686 3.6976-5.686s3.7762 2.844 2.6559 7.2795c-1.1264 4.421-2.7717 7.0811-2.7717 7.0811z"/>
 <path d="m42.439 75.385s-4.4665-5.5888-3.5819-8.6685c0.88462-3.0714 3.7038-5.6922 3.7038-5.6922s3.7782 2.8523 2.6518 7.2754c-1.1264 4.4314-2.7738 7.0852-2.7738 7.0852z"/>
 <path d="m49.406 65.774s-4.4665-5.5847-3.5778-8.656c0.88462-3.0796 3.6914-5.7004 3.6914-5.7004s3.7824 2.8502 2.6559 7.2712c-1.1285 4.4334-2.7696 7.0852-2.7696 7.0852z"/>
 <path d="m57.11 58.12s-4.4582-5.5971-3.5798-8.6664c0.89703-3.0693 3.6997-5.6984 3.6997-5.6984s3.7886 2.8585 2.6559 7.2795c-1.1347 4.419-2.7758 7.0852-2.7758 7.0852z"/>
 <path d="m64.871 49.89s-3.8175-6.0539-2.5918-9.0116c1.2174-2.9536 4.297-5.2519 4.297-5.2519s3.4434 3.2636 1.8312 7.5193c-1.5997 4.2867-3.5364 6.7442-3.5364 6.7442z"/>
 <path d="m81.815 37.925s-3.8237-6.0518-2.6022-9.0116c1.2318-2.9577 4.3032-5.2519 4.3032-5.2519s3.4351 3.2574 1.8457 7.5255c-1.6225 4.2743-3.5468 6.738-3.5468 6.738z"/>
 <path d="m90.492 33.318s-3.8154-6.0539-2.5918-9.0033c1.2215-2.9577 4.3053-5.254 4.3053-5.254s3.4475 3.2512 1.8436 7.5317c-1.6246 4.264-3.5571 6.7256-3.5571 6.7256z"/>
 <path d="m73.066 43.896s-3.8134-6.0394-2.5981-9.0095c1.2236-2.9598 4.3115-5.2457 4.3115-5.2457s3.4413 3.2429 1.8312 7.5151c-1.6184 4.2702-3.5447 6.7401-3.5447 6.7401z"/>
 <path d="m97.85 28.11s-3.8196-6.0394-2.6002-9.0012c1.207-2.9577 4.297-5.2519 4.297-5.2519s3.4372 3.2553 1.8354 7.5275c-1.6142 4.2743-3.5323 6.7256-3.5323 6.7256z"/>
 <path d="m-13.918 128.5s1.9821-6.8765 5.006-7.9347c3.0156-1.0541 6.7876-0.27489 6.7876-0.27489s-0.14675 4.7352-4.4086 6.3701c-4.2702 1.637-7.3849 1.8395-7.3849 1.8395z"/>
 <path d="m-8.6044 119.1s1.9863-6.8765 5.0101-7.9264c3.0156-1.0624 6.769-0.2811 6.769-0.2811s-0.14261 4.7269-4.3983 6.3763c-4.2639 1.6287-7.3808 1.8312-7.3808 1.8312z"/>
 <path d="m-3.0239 109.42s1.9966-6.862 5.0122-7.9202c3.0176-1.0541 6.7773-0.27075 6.7773-0.27075s-0.13227 4.7435-4.3921 6.3784c-4.2619 1.6266-7.3973 1.8126-7.3973 1.8126z"/>
 <path d="m2.565 99.766s1.9945-6.8765 5.0204-7.9265c3.0052-1.0479 6.7814-0.27282 6.7814-0.27282s-0.14055 4.7393-4.4024 6.3722c-4.2681 1.6266-7.3994 1.8271-7.3994 1.8271z"/>
 <path d="m8.1579 90.105s1.9966-6.8744 5.0163-7.9285c3.028-1.05 6.7855-0.27284 6.7855-0.27284s-0.15088 4.7269-4.4086 6.366c-4.2702 1.639-7.3932 1.8354-7.3932 1.8354z"/>
 <path d="m14.822 80.48s1.9966-6.8641 5.0122-7.9264c3.028-1.0458 6.7814-0.27077 6.7814-0.27077s-0.13228 4.7393-4.3983 6.3639c-4.266 1.6432-7.3953 1.8333-7.3953 1.8333z"/>
 <path d="m21.785 71.429s1.9821-6.8806 4.9998-7.9388c3.0176-1.0562 6.7793-0.27282 6.7793-0.27282s-0.14468 4.7311-4.3983 6.3701c-4.2743 1.639-7.3808 1.8416-7.3808 1.8416z"/>
 <path d="m28.723 62.358s1.9821-6.8765 5.0018-7.9182c3.0238-1.0644 6.7793-0.28109 6.7793-0.28109s-0.15088 4.729-4.4086 6.368c-4.2619 1.6349-7.3725 1.8312-7.3725 1.8312z"/>
 <path d="m36.476 53.598s1.9801-6.8662 4.9977-7.9223c3.0197-1.0562 6.7917-0.2625 6.7917-0.2625s-0.14468 4.7269-4.4169 6.3618c-4.2474 1.637-7.3725 1.823-7.3725 1.823z"/>
 <path d="m44.76 44.138s2.5009-6.6987 5.5992-7.5255c3.1044-0.81021 6.7917 0.25423 6.7917 0.25423s-0.50224 4.7001-4.8799 6.0084c-4.3818 1.3125-7.511 1.2629-7.511 1.2629z"/>
 <path d="m53.36 34.031s4.3363-5.6818 7.5379-5.5661c3.1995 0.11988 6.4176 2.2074 6.4176 2.2074s-1.8498 4.3466-6.4176 4.328c-4.5636-0.008274-7.5379-0.96937-7.5379-0.96937z"/>
 <path d="m62.665 27.539s4.3425-5.6901 7.5523-5.5723c3.185 0.11574 6.4135 2.2053 6.4135 2.2053s-1.8498 4.357-6.4155 4.3342c-4.5657-0.018599-7.5503-0.96729-7.5503-0.96729z"/>
 <path d="m71.975 21.043s4.3508-5.6984 7.5503-5.5785c3.1954 0.11368 6.4176 2.1992 6.4176 2.1992s-1.8498 4.3714-6.4155 4.3363c-4.5699-0.004131-7.5524-0.95696-7.5524-0.95696z"/>
 <path d="m83.411 15.235s4.5037-5.5558 7.7074-5.3429c3.1809 0.21288 6.3453 2.3976 6.3453 2.3976s-1.98 4.297-6.5499 4.142c-4.5595-0.15501-7.5028-1.1967-7.5028-1.1967z"/>
 <path d="m425.43 130.49l-1.6742-2.9474-9.3794-16.093c-15.859-27.088-27.396-44.146-50.012-67.977-19.693-20.743-34.905-26.516-46.004-30.732-1.6928-0.649-3.2925-1.2525-4.7662-1.8622-11.023-4.5678-29.236-2.3128-30.005-2.2178l0.2687 2.1289c0.18188-0.024799 18.422-2.2839 28.909 2.0627 1.5068 0.62833 3.1231 1.2463 4.8386 1.887 10.905 4.14 25.844 9.8114 45.198 30.199 22.479 23.678 34.424 40.467 50.194 67.388 4.6339 7.9016 7.571 12.616 10.899 18.509l0.7317 0.8784c0.92804 1.5067-0.1261 1.5708 0.82465 1.0024 0.90939-0.54979 0.46298-1.3641-0.022705-2.226z"/>
 <g fill="none" stroke="#000" stroke-width=".45">
  <path d="m336.38 22.61s31.636 11.335 55.75 32.739c24.118 21.402 116.64 113.69 134.48 140.92"/>
  <path d="m340.92 24.951s28.76 9.1232 74.044 48.317c45.306 39.2 120.52 129.38 120.52 129.38"/>
  <path d="m361.08 33.674s45.521 33.14 67.316 54.625c21.781 21.504 75.158 76.685 80.459 81.127 5.2829 4.4458 27.002 24.077 27.002 24.077"/>
  <path d="m526.8 187.8s-43.545-42.052-54.636-51.86c-11.103-9.8073-45.969-44.293-72.479-67.463-26.512-23.174-56.374-36.906-56.374-36.906s43.096 66.293 64.555 103.16c21.46 36.875 59.792 112.19 71.512 126.17 11.719 13.96 18.711 26.266 18.711 26.266s-61.119-98.629-73.872-127c-12.742-28.366-35.992-63.298-58.168-94.547-22.165-31.27-41.823-45.866-45.161-48.061"/>
  <path d="m322 22.165s31.075 32.77 46.784 53.575c15.718 20.795 51.039 79.008 63.157 103.21 12.128 24.203 33.179 62.475 42.54 75.623 9.3484 13.127 17.322 26.309 17.322 26.309"/>
  <path d="m333.05 31.04s12.631 13.484 24.838 27.89c12.194 14.431 32.576 47.143 43.931 63.93 11.37 16.789 55.136 100.26 58.588 105.26 3.4558 4.9812 26.313 41.8 28.856 47.284 2.5443 5.4793 4.5182 8.2117 4.5182 8.2117"/>
  <path d="m526.69 181.36s-43.549-42.052-54.642-51.876c-11.087-9.8073-45.957-44.285-72.468-67.461-26.504-23.166-56.382-36.896-56.382-36.896s43.098 66.284 64.567 103.15c21.454 36.867 59.78 112.19 71.505 126.16 11.723 13.982 18.72 26.282 18.72 26.282s-61.122-98.644-73.878-127c-12.734-28.372-35.992-63.314-58.166-94.566-22.169-31.255-41.823-45.86-45.171-48.048"/>
  <path d="m317.41 21.444s31.071 32.772 46.786 53.577c15.716 20.797 51.058 79.01 63.168 103.21 12.112 24.207 33.163 62.482 42.524 75.616 9.365 13.141 17.329 26.324 17.329 26.324"/>
  <path d="m330.71 27.458s12.631 13.484 24.831 27.894c12.201 14.425 32.57 47.143 43.935 63.922 11.368 16.789 55.14 100.27 58.592 105.25 3.4456 5.0039 26.305 41.809 28.845 47.296 2.5464 5.4855 4.5244 8.1951 4.5244 8.1951"/>
  <path d="m517.88 269.16s-26.741-17.105-64.472-77.082c-37.727-59.985-60.272-88.896-65.175-95.219-4.8985-6.3267-58.629-75.337-58.629-75.337"/>
  <path d="m532.69 260.41s-44.599-45.287-76.939-98.493c-32.34-53.199-56.798-95.074-75.631-112.49-18.833-17.422-51.798-35.612-51.798-35.612"/>
  <path d="m529.8 257.72s-47.094-61.467-71.96-101.93c-24.854-40.461-49.927-74.393-60.253-88.431-10.332-14.022-35.315-33.996-35.315-33.996"/>
  <path d="m531.81 259.28s-44.589-45.279-76.941-98.486c-32.344-53.207-56.796-95.076-75.629-112.51-18.829-17.411-51.785-35.608-51.785-35.608"/>
  <path d="m528.92 256.6s-47.098-61.473-71.964-101.95c-24.856-40.453-49.929-74.393-60.256-88.417-10.314-14.032-35.314-34.004-35.314-34.004"/>
  <path d="m517.06 248.24s-27.921-47.317-52.604-83.14c-24.674-35.815-50.781-72.506-50.781-72.506s-10.768-13.54-28.734-32.396c-17.959-18.848-37.77-37.158-37.77-37.158"/>
  <path d="m514.87 247.79s-27.921-47.327-52.598-83.146c-24.683-35.815-50.781-72.493-50.781-72.493s-10.785-13.548-28.744-32.4c-17.959-18.854-37.766-37.166-37.766-37.166"/>
 </g>
 <path d="m435.39 139.14s-0.8288-7.1121-3.6459-8.6436c-2.7986-1.544-6.6408-1.391-6.6408-1.391s-0.63455 4.6877 3.2987 7.0108c3.9353 2.3087 6.988 3.0238 6.988 3.0238z"/>
 <path d="m419.55 140.37s4.4644-5.5909 3.5736-8.656c-0.87845-3.0796-3.6894-5.7046-3.6894-5.7046s-3.7741 2.8481-2.6559 7.2754c1.1265 4.4334 2.7717 7.0852 2.7717 7.0852z"/>
 <path d="m414.78 130.67s4.4644-5.5847 3.5736-8.656c-0.88254-3.0734-3.6935-5.6901-3.6935-5.6901s-3.7803 2.8461-2.658 7.2816c1.1285 4.4128 2.7779 7.0646 2.7779 7.0646z"/>
 <path d="m408.38 121.32s4.4562-5.5847 3.5736-8.6581c-0.88464-3.0796-3.6914-5.6942-3.6914-5.6942s-3.7865 2.8461-2.66 7.2692c1.1243 4.4376 2.7779 7.0832 2.7779 7.0832z"/>
 <path d="m402.83 112.75s4.45-5.5888 3.5798-8.6664c-0.89908-3.0672-3.7038-5.6942-3.7038-5.6942s-3.7844 2.8543-2.66 7.2795c1.1264 4.4128 2.7841 7.0811 2.7841 7.0811z"/>
 <path d="m396.99 103.93s4.4562-5.5929 3.5819-8.6664c-0.88873-3.0879-3.7018-5.6942-3.7018-5.6942s-3.7824 2.8419-2.6476 7.2774c1.1181 4.4169 2.7675 7.0832 2.7675 7.0832z"/>
 <path d="m390.02 94.311s4.4685-5.595 3.5736-8.6664c-0.88873-3.0693-3.6893-5.6922-3.6893-5.6922s-3.7844 2.8482-2.6663 7.2754c1.1327 4.421 2.782 7.0832 2.782 7.0832z"/>
 <path d="m382.81 85.538s4.4582-5.595 3.5798-8.6746c-0.89084-3.0693-3.6976-5.686-3.6976-5.686s-3.7741 2.844-2.6539 7.2795c1.1265 4.421 2.7717 7.0811 2.7717 7.0811z"/>
 <path d="m375.56 75.385s4.4644-5.5888 3.5798-8.6685c-0.88666-3.0714-3.7059-5.6922-3.7059-5.6922s-3.7783 2.8523-2.6518 7.2754c1.1285 4.4314 2.7779 7.0852 2.7779 7.0852z"/>
 <path d="m368.59 65.774s4.4624-5.5847 3.5777-8.656c-0.88455-3.0796-3.6914-5.7004-3.6914-5.7004s-3.7803 2.8502-2.6539 7.2712c1.1243 4.4334 2.7675 7.0852 2.7675 7.0852z"/>
 <path d="m360.88 58.12s4.4603-5.5971 3.584-8.6664c-0.89911-3.0693-3.7018-5.6984-3.7018-5.6984s-3.7865 2.8585-2.6559 7.2795c1.1347 4.419 2.7738 7.0852 2.7738 7.0852z"/>
 <path d="m353.12 49.89s3.8176-6.0539 2.594-9.0116c-1.2174-2.9536-4.2971-5.2519-4.2971-5.2519s-3.4433 3.2636-1.8333 7.5193c1.5977 4.2867 3.5364 6.7442 3.5364 6.7442z"/>
 <path d="m336.18 37.925s3.8237-6.0518 2.6022-9.0116c-1.2319-2.9577-4.3032-5.2519-4.3032-5.2519s-3.4351 3.2574-1.8457 7.5255c1.6184 4.2743 3.5468 6.738 3.5468 6.738z"/>
 <path d="m327.5 33.318s3.8175-6.0539 2.5919-9.0033c-1.2215-2.9577-4.3032-5.254-4.3032-5.254s-3.4496 3.2512-1.8437 7.5317c1.6266 4.264 3.555 6.7256 3.555 6.7256z"/>
 <path d="m344.93 43.896s3.8113-6.0394 2.598-9.0095c-1.2256-2.9598-4.3115-5.2457-4.3115-5.2457s-3.4393 3.2429-1.8312 7.5151c1.6163 4.2702 3.5446 6.7401 3.5446 6.7401z"/>
 <path d="m320.15 28.11s3.8196-6.0394 2.6001-9.0012c-1.207-2.9577-4.297-5.2519-4.297-5.2519s-3.4372 3.2553-1.8374 7.5275c1.6142 4.2743 3.5343 6.7256 3.5343 6.7256z"/>
 <path d="m431.91 128.5s-1.9822-6.8765-5.006-7.9347c-3.0176-1.0541-6.7876-0.27489-6.7876-0.27489s0.14673 4.7352 4.4086 6.3701c4.2701 1.637 7.3849 1.8395 7.3849 1.8395z"/>
 <path d="m426.6 119.1s-1.9863-6.8765-5.0101-7.9264c-3.0156-1.0624-6.769-0.2811-6.769-0.2811s0.14468 4.7269 4.4004 6.3763c4.2598 1.6287 7.3788 1.8312 7.3788 1.8312z"/>
 <path d="m421.02 109.42s-1.9966-6.862-5.0142-7.9202c-3.0176-1.0541-6.7752-0.27075-6.7752-0.27075s0.13028 4.7435 4.3921 6.3784c4.2619 1.6266 7.3973 1.8126 7.3973 1.8126z"/>
 <path d="m415.43 99.766s-1.9966-6.8765-5.0184-7.9265c-3.0073-1.0479-6.7814-0.27282-6.7814-0.27282s0.13846 4.7393 4.4024 6.3722c4.2661 1.6266 7.3973 1.8271 7.3973 1.8271z"/>
 <path d="m409.83 90.105s-1.9945-6.8744-5.0184-7.9285c-3.0259-1.05-6.7814-0.27284-6.7814-0.27284s0.1488 4.7269 4.4086 6.366c4.2722 1.639 7.3911 1.8354 7.3911 1.8354z"/>
 <path d="m403.17 80.48s-1.9945-6.8641-5.0101-7.9264c-3.028-1.0458-6.7814-0.27077-6.7814-0.27077s0.13025 4.7393 4.4003 6.3639c4.264 1.6432 7.3912 1.8333 7.3912 1.8333z"/>
 <path d="m396.21 71.429s-1.9822-6.8806-5.0018-7.9388c-3.0176-1.0562-6.7772-0.27282-6.7772-0.27282s0.14261 4.7311 4.3983 6.3701c4.2722 1.639 7.3808 1.8416 7.3808 1.8416z"/>
 <path d="m389.27 62.358s-1.9821-6.8765-5.0039-7.9182c-3.0238-1.0644-6.7814-0.28109-6.7814-0.28109s0.15295 4.729 4.4107 6.368c4.2598 1.6349 7.3746 1.8312 7.3746 1.8312z"/>
 <path d="m381.52 53.598s-1.9801-6.8662-4.9998-7.9223c-3.0218-1.0562-6.7897-0.2625-6.7897-0.2625s0.14062 4.7269 4.4149 6.3618c4.2474 1.637 7.3746 1.823 7.3746 1.823z"/>
 <path d="m373.23 44.138s-2.4989-6.6987-5.5971-7.5255c-3.1044-0.81021-6.7917 0.25423-6.7917 0.25423s0.50223 4.7001 4.8799 6.0084c4.3838 1.3125 7.5089 1.2629 7.5089 1.2629z"/>
 <path d="m364.64 34.031s-4.3363-5.6818-7.5358-5.5661c-3.1995 0.11988-6.4218 2.2074-6.4218 2.2074s1.8519 4.3466 6.4218 4.328c4.5616-0.008274 7.5358-0.96937 7.5358-0.96937z"/>
 <path d="m355.33 27.539s-4.3445-5.6901-7.5523-5.5723c-3.183 0.11574-6.4115 2.2053-6.4115 2.2053s1.8478 4.357 6.4156 4.3342c4.5658-0.018599 7.5482-0.96729 7.5482-0.96729z"/>
 <path d="m346.02 21.043s-4.3508-5.6984-7.5482-5.5785c-3.1974 0.11368-6.4176 2.1992-6.4176 2.1992s1.8478 4.3714 6.4156 4.3363c4.5699-0.004131 7.5502-0.95696 7.5502-0.95696z"/>
 <path d="m334.58 15.235s-4.5057-5.5558-7.7094-5.3429c-3.1809 0.21288-6.3433 2.3976-6.3433 2.3976s1.9801 4.297 6.55 4.142c4.5574-0.15501 7.5027-1.1967 7.5027-1.1967z"/>
 <path d="m470.11 62.821l-2.596-2.1847-14.388-11.825c-24.292-19.879-41.038-31.863-70.534-46.335-25.679-12.602-41.945-12.724-53.819-12.819-1.8127-0.016533-3.5262-0.026863-5.1197-0.086803-11.924-0.44851-28.213 8.0029-28.901 8.3564l0.9921 1.9036c0.16122-0.088875 16.477-8.5486 27.826-8.1207 1.6266 0.066143 3.3607 0.080612 5.192 0.086815 11.663 0.086807 27.642 0.21082 52.883 12.593 29.306 14.381 46.345 25.968 70.495 45.725 7.0893 5.7955 11.486 9.1955 16.657 13.563l0.9921 0.5684c1.3972 1.0913 0.42783 1.5192 1.1223 0.6552 0.65729-0.83707-0.047485-1.4427-0.80194-2.0813z"/>
 <g fill="none" stroke="#000" stroke-width=".45">
  <path d="m349.09-7.3579s33.603-0.37617 63.658 11.306c30.056 11.678 148.9 66.022 175.09 85.354"/>
  <path d="m354.17-6.744s30.137-1.4489 86.23 19.548c56.107 20.995 157.99 79.38 157.99 79.38"/>
  <path d="m376.11-5.5804s54.204 15.239 82.108 27.806c27.903 12.587 97.137 45.756 103.65 48.08 6.5003 2.3314 33.694 13.187 33.694 13.187"/>
  <path d="m585.08 81.29s-55.452-24.284-69.259-29.622c-13.823-5.3346-58.505-25.54-91.418-38.043-32.915-12.505-65.693-14.995-65.693-14.995s63.463 47.162 96.405 74.265c32.946 27.109 95.082 84.392 110.93 93.422 15.847 9.0157 26.681 18.114 26.681 18.114s-91.606-71.208-113.44-93.377c-21.812-22.163-55.76-46.831-87.414-68.416-31.656-21.609-55.165-28.457-59.059-29.356"/>
  <path d="m335.45-2.7736s40.533 19.916 62.498 33.959c21.969 14.028 75.329 56.322 95.113 74.802 19.784 18.47 52.833 47.038 66.183 56.103 13.329 9.057 25.389 18.641 25.389 18.641"/>
  <path d="m348.9 1.7033s16.533 8.251 32.987 17.515c16.45 9.2885 46.937 32.869 63.424 44.659 16.498 11.785 86.565 74.825 91.538 78.312 4.9708 3.4661 39.209 30.04 43.495 34.294 4.2928 4.2515 7.0914 6.1324 7.0914 6.1324"/>
  <path d="m582.74 75.298s-55.456-24.286-69.271-29.635c-13.807-5.3387-58.492-25.536-91.412-38.047-32.904-12.5-65.693-14.983-65.693-14.983s63.459 47.158 96.411 74.256c32.94 27.105 95.068 84.392 110.92 93.414 15.853 9.0302 26.69 18.128 26.69 18.128s-91.612-71.226-113.43-93.379c-21.81-22.171-55.764-46.842-87.422-68.432-31.656-21.595-55.165-28.448-59.065-29.337"/>
  <path d="m330.9-1.8538s40.531 19.918 62.498 33.961c21.967 14.036 75.348 56.32 95.119 74.796 19.774 18.478 52.829 47.044 66.171 56.109 13.346 9.0591 25.402 18.647 25.402 18.647"/>
  <path d="m345.46-0.8411s16.533 8.251 32.987 17.517c16.454 9.2823 46.926 32.876 63.424 44.655 16.494 11.783 86.567 74.833 91.538 78.305 4.9688 3.4868 39.202 30.04 43.491 34.308 4.2949 4.2578 7.0955 6.1096 7.0955 6.1096"/>
  <path d="m605.01 160.68s-31.022-6.7421-87.257-49.849c-56.233-43.121-87.426-62.388-94.224-66.611-6.7938-4.2268-81.168-50.242-81.168-50.242"/>
  <path d="m615.85 147.31s-57.566-26.946-106.39-65.582c-48.824-38.628-86.314-69.385-110.03-79.165-23.717-9.7825-60.95-15.373-60.95-15.373"/>
  <path d="m612.2 145.8s-65.532-41.251-102.92-70.542c-37.377-29.29-72.688-52.383-87.249-61.952-14.565-9.5551-44.934-19.592-44.934-19.592"/>
  <path d="m614.63 146.57s-57.554-26.948-106.39-65.584c-48.832-38.634-86.317-69.387-110.04-79.174-23.711-9.7763-60.936-15.373-60.936-15.373"/>
  <path d="m610.99 145.05s-65.538-41.251-102.93-70.544c-37.375-29.288-72.69-52.387-87.245-61.946-14.551-9.5655-44.938-19.594-44.938-19.594"/>
  <path d="m596.97 141.35s-42.635-34.649-78.235-59.65c-35.592-25.001-72.828-50.32-72.828-50.32s-14.807-8.9475-38.208-20.377c-23.393-11.426-48.334-21.702-48.334-21.702"/>
  <path d="m594.76 141.69s-42.638-34.666-78.229-59.664c-35.596-24.997-72.826-50.31-72.826-50.31s-14.822-8.9537-38.214-20.381c-23.397-11.43-48.34-21.706-48.34-21.706"/>
 </g>
 <path d="m482.45 67.459s-3.2532-6.3784-6.4218-6.8331c-3.1623-0.47744-6.7091 1.0024-6.7091 1.0024s1.0355 4.6195 5.5289 5.4235c4.4934 0.79575 7.602 0.40717 7.602 0.40717z"/>
 <path d="m468.02 74.13s2.2405-6.8 0.33896-9.3629c-1.8912-2.5815-5.4441-4.0614-5.4441-4.0614s-2.5443 3.9808 0.043365 7.7425c2.5939 3.7638 5.0618 5.6818 5.0618 5.6818z"/>
 <path d="m460.18 66.686s2.2467-6.7876 0.33902-9.3588c-1.8974-2.5753-5.4442-4.0469-5.4442-4.0469s-2.5525 3.9808 0.043427 7.7487c2.5919 3.7452 5.0617 5.657 5.0617 5.657z"/>
 <path d="m450.92 60.144s2.2384-6.7835 0.34308-9.3588c-1.8994-2.5815-5.442-4.0552-5.442-4.0552s-2.5608 3.9849 0.035126 7.7425c2.6002 3.77 5.0638 5.6715 5.0638 5.6715z"/>
 <path d="m442.74 54.049s2.2322-6.7917 0.34515-9.3732c-1.9097-2.565-5.4565-4.0511-5.4565-4.0511s-2.5526 3.9953 0.039215 7.7487c2.594 3.7452 5.0721 5.6756 5.0721 5.6756z"/>
 <path d="m434.2 47.805s2.2302-6.7917 0.34512-9.3733c-1.9056-2.5856-5.4524-4.0511-5.4524-4.0511s-2.5526 3.9808 0.047546 7.7446c2.5877 3.7534 5.0597 5.6798 5.0597 5.6798z"/>
 <path d="m424.33 41.209s2.2426-6.7979 0.33688-9.3691c-1.9015-2.567-5.44-4.0552-5.44-4.0552s-2.5567 3.9891 0.030975 7.7487c2.6002 3.7514 5.0721 5.6756 5.0721 5.6756z"/>
 <path d="m414.51 35.49s2.2363-6.7959 0.34305-9.3774c-1.9036-2.567-5.4462-4.0469-5.4462-4.0469s-2.5464 3.9808 0.041321 7.7487c2.598 3.7576 5.0618 5.6756 5.0618 5.6756z"/>
 <path d="m404.18 28.5s2.2446-6.7938 0.34512-9.3733c-1.8974-2.5732-5.4545-4.0511-5.4545-4.0511s-2.5505 3.987 0.043457 7.7446c2.598 3.7617 5.0659 5.6798 5.0659 5.6798z"/>
 <path d="m394.31 21.907s2.2446-6.7876 0.34103-9.3588c-1.9016-2.5815-5.4442-4.0614-5.4442-4.0614s-2.5526 3.9891 0.043396 7.7425c2.596 3.7638 5.0597 5.6777 5.0597 5.6777z"/>
 <path d="m384.42 17.412s2.2342-6.7979 0.34515-9.3732c-1.9098-2.5629-5.4544-4.0511-5.4544-4.0511s-2.5547 3.9973 0.043396 7.7508c2.6021 3.7472 5.0659 5.6736 5.0659 5.6736z"/>
 <path d="m374.28 12.399s1.4737-7.0067-0.70065-9.3526c-2.1723-2.348-5.8596-3.431-5.8596-3.431s-2.0917 4.2557 0.89905 7.6846c2.9908 3.4641 5.6612 5.099 5.6612 5.099z"/>
 <path d="m354.23 7.0709s1.4861-7.0026-0.69031-9.3567c-2.1868-2.3418-5.8637-3.4227-5.8637-3.4227s-2.0896 4.2454 0.89084 7.697c3.0052 3.4434 5.6632 5.0824 5.6632 5.0824z"/>
 <path d="m344.49 5.7708s1.4737-7.0046-0.70065-9.3443c-2.1723-2.3459-5.8637-3.431-5.8637-3.431s-2.0999 4.2474 0.89493 7.7032c3.0052 3.4351 5.6694 5.0721 5.6694 5.0721z"/>
 <path d="m364.52 9.6235s1.4716-6.9881-0.69864-9.3484c-2.1805-2.35-5.8678-3.4165-5.8678-3.4165s-2.0958 4.233 0.89908 7.6805c2.999 3.4434 5.6674 5.0845 5.6674 5.0845z"/>
 <path d="m335.79 3.4477s1.482-6.9964-0.69446-9.3464c-2.1599-2.35-5.8555-3.4269-5.8555-3.4269s-2.0917 4.2433 0.89908 7.6929c2.999 3.4475 5.6508 5.0804 5.6508 5.0804z"/>
 <path d="m475.49 58.697s-4.2516-5.7583-7.449-5.6984-6.4611 2.1061-6.4611 2.1061 1.7837 4.388 6.3474 4.4396c4.5699 0.045471 7.5627-0.84742 7.5627-0.84742z"/>
 <path d="m467.24 51.73s-4.2516-5.7583-7.449-5.6901c-3.1995 0.055805-6.4444 2.0937-6.4444 2.0937s1.7795 4.3818 6.339 4.4438c4.5636 0.045479 7.5544-0.84742 7.5544-0.84742z"/>
 <path d="m458.64 44.597s-4.2556-5.7376-7.4531-5.6818c-3.1913 0.064072-6.4467 2.1041-6.4467 2.1041s1.7734 4.3983 6.335 4.452c4.5616 0.045471 7.5648-0.87428 7.5648-0.87428z"/>
 <path d="m450.04 37.487s-4.2619-5.748-7.4613-5.686c-3.183 0.06407-6.4528 2.102-6.4528 2.102s1.7817 4.3942 6.3453 4.4438c4.5616 0.045471 7.5688-0.85982 7.5688-0.85982z"/>
 <path d="m441.44 30.377s-4.2619-5.75-7.4594-5.6901c-3.2036 0.070274-6.4569 2.1041-6.4569 2.1041s1.7878 4.3818 6.3515 4.4355c4.5699 0.051666 7.5648-0.84948 7.5648-0.84948z"/>
 <path d="m431.84 23.67s-4.2598-5.7438-7.4532-5.6901c-3.2036 0.070274-6.4569 2.1041-6.4569 2.1041s1.7775 4.3942 6.3411 4.4376c4.5699 0.055809 7.5689-0.85156 7.5689-0.85156z"/>
 <path d="m422.17 17.604s-4.2495-5.7604-7.449-5.7046c-3.1953 0.059946-6.4486 2.102-6.4486 2.102s1.7795 4.388 6.3412 4.4438c4.574 0.04961 7.5565-0.84121 7.5565-0.84121z"/>
 <path d="m412.51 11.515s-4.2474-5.7604-7.4449-5.686c-3.2037 0.055807-6.4528 2.0958-6.4528 2.0958s1.7858 4.3838 6.3494 4.4355c4.5657 0.053741 7.5482-0.84534 7.5482-0.84534z"/>
 <path d="m402.19 5.9961s-4.2433-5.748-7.4428-5.686c-3.1995 0.059935-6.459 2.1144-6.459 2.1144s1.7776 4.3776 6.3515 4.4272c4.5554 0.057871 7.5503-0.85568 7.5503-0.85568z"/>
 <path d="m391.13 0.0084s-4.6794-5.4131-7.8686-5.1072c-3.1912 0.3183-6.2791 2.5981-6.2791 2.5981s2.1082 4.2309 6.6636 3.9353c4.5657-0.2935 7.4841-1.4261 7.4841-1.4261z"/>
 <path d="m379.56-6.4774s-6.0415-3.8196-9.0033-2.596c-2.9577 1.2236-5.252 4.3012-5.252 4.3012s3.2429 3.431 7.5255 1.823c4.2743-1.5915 6.7297-3.5282 6.7297-3.5282z"/>
 <path d="m368.57-9.3297s-6.0518-3.8237-9.0199-2.6001c-2.9452 1.2174-5.2436 4.3012-5.2436 4.3012s3.2491 3.4413 7.5234 1.8312c4.2702-1.5977 6.74-3.5323 6.74-3.5323z"/>
 <path d="m357.58-12.18s-6.0559-3.8299-9.0136-2.6042c-2.9577 1.2174-5.254 4.295-5.254 4.295s3.2532 3.4537 7.5254 1.8333c4.2805-1.5936 6.7421-3.524 6.7421-3.524z"/>
 <path d="m344.84-13.647s-6.153-3.6398-9.0818-2.3294c-2.9102 1.3063-5.1197 4.4562-5.1197 4.4562s3.3546 3.3401 7.5813 1.606c4.2268-1.732 6.6202-3.7328 6.6202-3.7328z"/>
 <ellipse cx="208.53" cy="-8.2033" rx="105.98" ry="53.615" fill="#fff" stroke="#000" stroke-linecap="round" stroke-linejoin="round" stroke-width="1.492"/>
 <path d="m187.93-26.673s-5.9712-3.6976 0.59734-9.3133c6.5664-5.6136 12.895-9.5531 12.895-9.5531l-1.67-2.2694s-13.133 8.1207-13.377 8.4762c-0.23767 0.36377-8.5982 5.0184-8.5982 5.0184l3.3442 7.2836 6.8082 0.3576z" stroke="#fff" stroke-linecap="round" stroke-linejoin="round" stroke-width=".645"/>
 <g stroke="#fff" stroke-linecap="round" stroke-linejoin="round" stroke-width=".645">
  <path d="m161.42-41.5s-2.288-0.84536-5.2994-0.47952c-3.0094 0.3617-4.9419 0.47952-5.781 1.207-0.84329 0.71927-6.3866 3.2512-6.3866 3.2512s-1.4447 1.205-1.6845 1.9222c-0.24388 0.72754-0.24388 2.6497-0.24388 2.6497l9.1542 1.8085 10.241-10.359z"/>
  <path d="m138.18 8.0072s-3.739 2.5319-4.2247 5.0618c-0.47951 2.5298-0.96109 6.3804-0.23563 7.2237 0.72133 0.84948 4.0924 1.8106 6.5044 0.24389 2.41-1.5584 0.60147-6.5024 0.60147-6.5024l-2.6456-6.027z"/>
  <path d="m162.51 18.005s-1.6845 5.0618-4.822 5.5433c-3.1313 0.48158-7.2299 1.205-7.8293 0.60352-0.60355-0.60352-1.5688-2.7717-1.207-3.493 0.36171-0.71928 4.8199-3.617 5.905-4.4562 1.083-0.84535 3.2492-3.3731 3.2492-3.3731l4.7042 5.1754z"/>
  <path d="m142.75 1.387s-3.3731 4.0903-3.8547 6.6202c-0.48572 2.5319-2.288 10.843 0 12.41 2.286 1.5626 6.3866 1.4447 7.2258 1.3187 0.84122-0.11574 0.9673-0.9611 3.8547-1.8002 2.8874-0.84535 7.8293-7.11 7.8293-7.11l-4.0945-7.2299-7.2299-5.657-3.7307 1.4489z"/>
  <path d="m131.07-10.301s-3.617 3.493-4.9377 6.1469c-1.3269 2.6497-1.6845 8.191-1.207 8.6664 0.48363 0.48571 3.7348-0.71927 4.9419-2.0462 1.2029-1.3207 3.2533-9.6378 3.2533-9.6378l-2.0504-3.1292z"/>
  <path d="m131.18-6.0888s-5.0535 10.239-4.328 14.46c0.71928 4.2123 0.71928 4.9357 0.71928 4.9357l4.2123 2.41s2.8895-0.84121 4.3446-1.3228c1.4427-0.48572 8.4308-13.251 8.4308-13.251l0.7255-2.0483-14.104-5.1837z"/>
  <path d="m134.08-20.902s-10.186 9.5841-0.95903 17.707c5.0618 4.4562 11.322 2.8895 11.322 2.8895l0.4775-14.456-10.841-6.1407z"/>
  <path d="m164.32 1.7487s-2.0483 6.3804-3.617 8.0649c-1.5646 1.6824-4.2123 3.493-6.6223 2.7696-2.4141-0.72133-2.288-7.5854-1.5687-10.834 0.72755-3.2553 11.808 0 11.808 0z"/>
  <path d="m153.24-33.19s-11.686-1.3249-13.009-0.96522c-1.3269 0.36584-6.7504 1.9346-7.4676 7.11-0.72546 5.1775 2.6518 8.1931 2.6518 8.1931s3.4889 3.6108 5.5351 3.7307c2.0462 0.12194 5.1796-0.84535 5.1796-0.84535l7.11-17.223z"/>
  <path d="m166.12-2.3478s-7.5875 13.131-18.43 5.4152c-10.835-7.7074-7.4635-13.73-3.4889-20.956 3.9725-7.2299 6.8682-6.1427 6.8682-6.1427l16.498 1.8064 1.5667 13.61-3.0135 6.2668z"/>
  <path d="m191.06-13.548s0.71925 7.7032-0.96526 10.355c-1.6845 2.6477-3.7328 4.944-7.8334 4.3404-4.0903-0.60353 0.24597-17.589 0.24597-17.589l8.5527 2.8936z"/>
  <path d="m185.03-12.833s0.23975 11.93-1.8126 14.817c-2.0441 2.8957-8.7863 4.1007-8.7863 4.1007l-0.959-14.218 11.558-4.7001z"/>
  <path d="m177.21-4.5242s1.4365 10.481 0.23563 13.133c-1.205 2.6477-1.9242 4.4582-5.5413 6.2647-3.6108 1.8085-5.6612 2.2901-7.4697 2.41-1.8085 0.11782-2.8895 0.60352-3.9746-0.11988-1.083-0.7234-3.2532-3.6212-2.7696-6.6284 0.47949-3.0094 6.9881-13.49 6.9881-13.49l12.531-1.5688z"/>
  <path d="m184.31-14.879s-0.72548 5.7852-4.2185 10.119-6.2605 5.4214-8.6685 6.0208c-2.4058 0.60352-8.4308 0.48778-8.4308 0.48778s-2.1661-11.688 1.2029-18.432c3.3711-6.7421 5.0576-9.5179 5.0576-9.5179l9.518 0.7234 5.5392 10.599z"/>
  <path d="m167.69-42.222l-7.9471-0.124-2.1702 1.4489-2.164 1.9284s-0.72339-0.12608-1.5646 0.35757c-0.84538 0.48158-2.0504 0.71927-2.8916 2.0483-0.84535 1.3269-1.9325 2.2901-2.8936 3.7369s-3.0094 4.2123-3.0094 4.2123h-0.72546s-2.1723 1.8106-2.1723 2.2901c0 0.48365-0.59729 2.8936 0.24597 3.493 0.84329 0.60353 2.6518 2.4058 2.6518 2.4058s2.7676 3.1375 11.444 2.7758c8.6685-0.36377 13.127-5.1816 13.127-5.1816l3.1355-3.3752-5.0659-16.016z"/>
  <path d="m184.19-30.058s10.241 0 10.839 7.9492c0.60973 7.9533-3.6149 11.326-3.6149 11.326l-9.9954 0.4795s-4.9377-4.6959-5.2994-8.6747c-0.36378-3.9725 0.60559-10.111 8.0711-11.08z"/>
  <path d="m179.74-34.155s1.3207-4.3363 0.83917-5.8988c-0.48367-1.5646-2.164-3.8568-4.6939-5.7852-2.534-1.9222-5.3015-2.7634-6.862-2.6477-1.5708 0.12402-3.4951 0.24183-3.4951 0.24183s-0.96522 4.8179-0.84534 5.9009c0.11783 1.0872 7.4655 6.7463 7.4655 6.7463l7.5916 1.4427z"/>
  <path d="m180.57-35.478s-3.6088-5.0576-6.1428-5.4193c-2.5298-0.3617-8.437 0-8.437 0l-3.3711 4.2164s0.24597 5.4214 1.5688 7.2237c1.329 1.8064 0.96108 4.4624 3.3711 4.5802 2.412 0.11575 4.5781 1.205 5.0618 1.3269 0.47951 0.12401 2.0462 0.60146 2.0462 0.60146h4.9419s1.3207-0.24182 1.9201-1.081c0.60559-0.84534 1.6824-1.9304 1.6824-3.1334 0-1.207-0.11162-2.1682-0.4733-3.739-0.3638-1.5626-1.4448-2.4079-1.4448-2.4079l-0.7234-2.1681z"/>
  <line x1="181.3" x2="181.18" y1="-29.457" y2="-34.512"/>
 </g>
 <path d="m192.34-40.076s-0.9921 3.7927-0.076492 6.8413c0.9053 3.0466 2.3852 5.686 2.3852 5.686s-6.3412-5.3573-6.1737-6.676c0.16327-1.3166 0.16327-3.7038 0.16327-3.7038" stroke="#fff" stroke-linecap="round" stroke-linejoin="round" stroke-width=".645"/>
 <path d="m204.57-33.636s6.9282 1.1533 5.6922-7.3973-3.3938-15.688-3.3938-15.688l2.7469-0.6056s4.5223 14.77 4.4624 15.194c-0.047516 0.42991 3.1644 9.4435 3.1644 9.4435l-7.3105 3.2719-5.3615-4.2185z" stroke="#fff" stroke-linecap="round" stroke-linejoin="round" stroke-width=".645"/>
 <g stroke="#fff" stroke-linecap="round" stroke-linejoin="round" stroke-width=".645">
  <path d="m191.07-27.312s-2.2777 0.87429-4.3053 3.1375c-2.0234 2.2529-3.4 3.6129-3.553 4.7063-0.15707 1.1037-2.658 6.6574-2.658 6.6574s-0.29765 1.8602 0.002045 2.5588c0.29971 0.70894 1.5688 2.1578 1.5688 2.1578l8.0732-4.6773 0.8722-14.54z"/>
  <path d="m206.23 25.241s-1.145 4.3714 0.15706 6.5871c1.3084 2.2178 3.4889 5.4297 4.5885 5.5929 1.0934 0.15916 4.2722-1.3435 5.0432-4.1069 0.78334-2.7675-3.832-5.2932-3.832-5.2932l-5.9567-2.7799z"/>
  <path d="m231.11 16.721s2.0669 4.913 0.022736 7.3415c-2.0338 2.4265-4.636 5.6715-5.4896 5.6157-0.84534-0.055803-2.9928-1.0479-3.2036-1.8354-0.20874-0.78127 1.2401-5.8926 1.5005-7.2402 0.25011-1.3497 0.2191-4.6794 0.2191-4.6794l6.9509 0.7978z"/>
  <path d="m205.29 17.244s0.16536 5.2994 1.4716 7.5213c1.3063 2.224 5.4276 9.6647 8.1765 9.3319 2.7552-0.3369 5.7542-3.1189 6.304-3.772 0.5601-0.64486 0.090942-1.3538 1.7134-3.896 1.6184-2.5381 1.2009-10.504 1.2009-10.504l-7.8459-2.7365-9.1686 0.5064-1.8519 3.5488z"/>
  <path d="m188.81 16.159s-0.41544 5.008 0.3369 7.8748c0.75647 2.8667 4.1337 7.2692 4.8117 7.3167 0.67795 0.043404 2.3314-3.0011 2.3666-4.7952 0.031006-1.7961-3.9126-9.3898-3.9126-9.3898l-3.6026-1.0066z"/>
  <path d="m191.68 19.249s2.9391 11.035 6.2647 13.73c3.3256 2.6931 3.803 3.2326 3.803 3.2326l4.7579-0.9673s1.6142-2.536 2.3893-3.8506c0.76265-1.3166-2.3997-15.522-2.3997-15.522l-0.8061-2.0173-14.009 5.3945z"/>
  <path d="m184.08 6.2028s-1.3455 13.918 10.946 13.953c6.7483 0.014467 10.423-5.2953 10.423-5.2953l-9.1686-11.188-12.201 2.5298z"/>
  <path d="m221.75 3.2989s2.6704 6.1531 2.6042 8.4556c-0.062012 2.2963-0.86809 5.4049-3.152 6.4507-2.2901 1.0417-6.7277-4.202-8.3316-7.1245-1.5998-2.9184 8.8793-7.7818 8.8793-7.7818z"/>
  <path d="m190.38-15.66s-9.6544 6.7029-10.413 7.85c-0.7606 1.1471-3.803 5.9009-0.93422 10.268 2.873 4.3714 7.389 4.4128 7.389 4.4128s5.0142 0.41337 6.6347-0.84535c1.6163-1.2587 3.3359-4.0469 3.3359-4.0469l-6.0125-17.639z"/>
  <path d="m220.41-0.9692s2.9453 14.873-10.287 16.225c-13.238 1.3497-14.671-5.4028-16.444-13.451-1.7734-8.0587 1.112-9.15 1.112-9.15l13.604-9.52 10.15 9.2017 1.8643 6.6946z"/>
  <path d="m231.77-25.828s5.6219 5.3181 6.0993 8.4184c0.4754 3.1065 0.45058 6.1779-3.0321 8.4225-3.4723 2.2488-11.407-13.379-11.407-13.379l8.3398-3.462z"/>
  <path d="m227.72-21.318s8.038 8.809 8.4039 12.331c0.36584 3.5261-3.9126 8.8751-3.9126 8.8751l-10.099-10.051 5.6074-11.155z"/>
  <path d="m227.31-9.9084s7.9926 6.9282 8.8338 9.7164c0.8371 2.7882 1.4881 4.6236-0.035156 8.3584-1.5295 3.7431-2.7551 5.4586-4.0263 6.7421-1.2814 1.2773-1.7816 2.3521-3.0734 2.5216-1.2897 0.17155-4.8323-0.57046-6.4507-3.1458-1.6266-2.5857-3.6356-14.755-3.6356-14.755l8.3873-9.4373z"/>
  <path d="m225.82-22.382s3.2718 4.8261 3.5075 10.388c0.22736 5.564-1.143 8.2055-2.5608 10.243-1.4117 2.0421-6.0125 5.9216-6.0125 5.9216s-9.3381-7.356-11.246-14.648c-1.9077-7.2981-2.4699-10.489-2.4699-10.489l7.6309-5.7356 11.151 4.3198z"/>
  <path d="m195.3-31.987l-6.058 5.1506-0.6779 2.5174-0.3555 2.8771s-0.62625 0.3865-0.94249 1.3083c-0.31416 0.91356-1.0644 1.8953-0.82263 3.4475 0.2377 1.546 0.057877 2.9846 0.28523 4.7063 0.22736 1.7217 0.51466 5.161 0.51466 5.161l-0.5415 0.4733s-0.44025 2.7903-0.1178 3.154c0.31003 0.3617 1.453 2.567 2.4823 2.4658 1.0293-0.10335 3.5778 0.066139 3.5778 0.066139s4.1503 0.52498 10.434-5.4648c6.2874-5.9856 6.4569-12.548 6.4569-12.548l0.1323-4.5988-14.367-8.716z"/>
  <path d="m215.73-33.721s7.7012-6.7463 13.391-1.1616c5.7025 5.5826 4.7496 10.896 4.7496 10.896l-7.1989 6.9571s-6.8145-0.2811-9.7019-3.0342c-2.8977-2.7469-6.2192-8.0029-1.2401-13.658z"/>
  <path d="m209.68-33.857s-1.8622-4.1358-3.2615-4.9956c-1.391-0.86188-4.1709-1.4695-7.3436-1.2484-3.1747 0.21701-5.81 1.4034-6.9096 2.5319-1.0975 1.1223-2.4678 2.4844-2.4678 2.4844s2.4534 4.2578 3.2553 4.9915c0.80817 0.73994 10.066 0.15502 10.066 0.15502l6.6615-3.9188z"/>
  <path d="m209.44-35.412s-6.0518-1.422-8.1951-0.024799c-2.1372 1.3951-6.337 5.5599-6.337 5.5599l0.2439 5.3945s3.7555 3.9188 5.9402 4.3983c2.1888 0.48778 3.6625 2.7179 5.5537 1.2256 1.8932-1.5026 4.233-2.1165 4.6773-2.3438 0.44646-0.22322 1.9387-0.90115 1.9387-0.90115l3.7162-3.2553s0.8371-1.05 0.73579-2.0793c-0.10332-1.0334-0.00827-2.565-0.79987-3.4703-0.79369-0.90529-1.5192-1.5502-2.8275-2.4823-1.298-0.94663-2.6725-0.86189-2.6725-0.86189l-1.9739-1.1595z"/>
  <line x1="213.95" x2="210.53" y1="-31.356" y2="-35.081"/>
 </g>
 <path d="m210.1-46.618s-1.7527 3.5013-4.4438 5.1982c-2.689 1.6866-5.5413 2.6973-5.5413 2.6973s8.2985 0.15501 9.0426-0.95076c0.74202-1.0954 2.3211-2.8936 2.3211-2.8936" stroke="#fff" stroke-linecap="round" stroke-linejoin="round" stroke-width=".645"/>
 <path d="m230.99-26.673s5.9712-3.6976-0.59938-9.3133c-6.5706-5.6136-12.897-9.5531-12.897-9.5531l1.6721-2.2694s13.137 8.1207 13.381 8.4762c0.23354 0.36377 8.5899 5.0184 8.5899 5.0184l-3.338 7.2836-6.8083 0.3576z" stroke="#fff" stroke-linecap="round" stroke-linejoin="round" stroke-width=".645"/>
 <g stroke="#fff" stroke-linecap="round" stroke-linejoin="round" stroke-width=".645">
  <path d="m257.5-41.5s2.286-0.84536 5.2994-0.47952c3.0073 0.3617 4.9378 0.47952 5.779 1.207 0.84329 0.71927 6.3887 3.2512 6.3887 3.2512s1.4447 1.205 1.6845 1.9222c0.24182 0.72754 0.24182 2.6497 0.24182 2.6497l-9.1583 1.8085-10.235-10.359z"/>
  <path d="m280.74 8.0072s3.7452 2.5319 4.2247 5.0618c0.47949 2.5298 0.96316 6.3804 0.23767 7.2237-0.71924 0.84948-4.0965 1.8106-6.5024 0.24389-2.4079-1.5584-0.60562-6.5024-0.60562-6.5024l2.6456-6.027z"/>
  <path d="m256.41 18.005s1.6824 5.0618 4.822 5.5433c3.1313 0.48158 7.2278 1.205 7.8293 0.60352 0.60147-0.60352 1.5626-2.7717 1.205-3.493-0.36169-0.71928-4.82-3.617-5.903-4.4562-1.083-0.84535-3.247-3.3731-3.247-3.3731l-4.7062 5.1754z"/>
  <path d="m276.16 1.387s3.3731 4.0903 3.8609 6.6202c0.47333 2.5319 2.2818 10.843 0 12.41-2.2942 1.5626-6.3949 1.4447-7.2299 1.3187-0.84534-0.11574-0.9714-0.9611-3.8568-1.8002-2.8853-0.84535-7.8252-7.11-7.8252-7.11l4.0924-7.2299 7.2258-5.657 3.7328 1.4489z"/>
  <path d="m287.85-10.301s3.617 3.493 4.9377 6.1469c1.3269 2.6497 1.6824 8.191 1.2112 8.6664-0.49191 0.48571-3.7369-0.71927-4.9481-2.0462-1.2008-1.3207-3.2512-9.6378-3.2512-9.6378l2.0504-3.1292z"/>
  <path d="m287.74-6.0888s5.0535 10.239 4.328 14.46c-0.7193 4.2123-0.7193 4.9357-0.7193 4.9357l-4.2102 2.41s-2.8977-0.84121-4.3445-1.3228c-1.4427-0.48572-8.4308-13.251-8.4308-13.251l-0.7275-2.0483 14.104-5.1837z"/>
  <path d="m284.84-20.902s10.188 9.5841 0.96109 17.707c-5.0618 4.4562-11.32 2.8895-11.32 2.8895l-0.4796-14.456 10.839-6.1407z"/>
  <path d="m254.61 1.7487s2.0482 6.3804 3.6129 8.0649c1.5646 1.6824 4.2123 3.493 6.6243 2.7696 2.412-0.72133 2.286-7.5854 1.5688-10.834-0.72754-3.2553-11.806 0-11.806 0z"/>
  <path d="m265.69-33.19s11.682-1.3249 13.015-0.96522c1.3269 0.36584 6.7442 1.9346 7.4614 7.11 0.72754 5.1775-2.6518 8.1931-2.6518 8.1931s-3.4847 3.6108-5.5351 3.7307c-2.0524 0.12194-5.1795-0.84535-5.1795-0.84535l-7.11-17.223z"/>
  <path d="m252.8-2.3478s7.5854 13.131 18.428 5.4152c10.837-7.7074 7.4718-13.73 3.4909-20.956-3.9704-7.2299-6.8682-6.1427-6.8682-6.1427l-16.496 1.8064-1.5708 13.61 3.0156 6.2668z"/>
  <path d="m227.86-13.548s-0.71928 7.7032 0.96316 10.355c1.6866 2.6477 3.7348 4.944 7.8334 4.3404 4.0904-0.60353-0.24802-17.589-0.24802-17.589l-8.5486 2.8936z"/>
  <path d="m233.89-12.833s-0.23976 11.93 1.8044 14.817c2.0483 2.8957 8.7945 4.1007 8.7945 4.1007l0.9611-14.218-11.56-4.7001z"/>
  <path d="m241.71-4.5242s-1.4406 10.481-0.2377 13.133c1.2112 2.6477 1.9284 4.4582 5.5454 6.2647 3.6108 1.8085 5.657 2.2901 7.4655 2.41 1.8085 0.11782 2.8895 0.60352 3.9788-0.11988 1.083-0.7234 3.2512-3.6212 2.7696-6.6284-0.4816-3.0094-6.9881-13.49-6.9881-13.49l-12.534-1.5688z"/>
  <path d="m234.61-14.879s0.72752 5.7852 4.2185 10.119c3.493 4.3363 6.2647 5.4214 8.6705 6.0208 2.4058 0.60352 8.4328 0.48778 8.4328 0.48778s2.164-11.688-1.2029-18.432c-3.3711-6.7421-5.0618-9.5179-5.0618-9.5179l-9.5159 0.7234-5.5413 10.599z"/>
  <path d="m251.23-42.222l7.9471-0.124 2.164 1.4489 2.1785 1.9284s0.72131-0.12608 1.5584 0.35757c0.84534 0.48158 2.0504 0.71927 2.8936 2.0483 0.84122 1.3269 1.9304 2.2901 2.8895 3.7369s3.0114 4.2123 3.0114 4.2123h0.72546s2.1661 1.8106 2.1661 2.2901c0 0.48365 0.60147 2.8936-0.23566 3.493-0.84534 0.60353-2.6539 2.4058-2.6539 2.4058s-2.7696 3.1375-11.444 2.7758c-8.6664-0.36377-13.127-5.1816-13.127-5.1816l-3.1355-3.3752 5.0618-16.016z"/>
  <path d="m234.73-30.058s-10.237 0-10.834 7.9492c-0.60973 7.9533 3.6088 11.326 3.6088 11.326l9.9975 0.4795s4.9419-4.6959 5.3036-8.6747c0.3555-3.9725-0.60559-10.111-8.0753-11.08z"/>
  <path d="m239.19-34.155s-1.3228-4.3363-0.84329-5.8988c0.48158-1.5646 2.1681-3.8568 4.698-5.7852 2.534-1.9222 5.2954-2.7634 6.8599-2.6477 1.5729 0.12402 3.4951 0.24183 3.4951 0.24183s0.96521 4.8179 0.84534 5.9009c-0.11783 1.0872-7.4676 6.7463-7.4676 6.7463l-7.5874 1.4427z"/>
  <path d="m238.34-35.478s3.6129-5.0576 6.1448-5.4193 8.437 0 8.437 0l3.369 4.2164s-0.23975 5.4214-1.5667 7.2237c-1.329 1.8064-0.96112 4.4624-3.3711 4.5802-2.4141 0.11575-4.5802 1.205-5.0617 1.3269-0.47954 0.12401-2.0462 0.60146-2.0462 0.60146h-4.9419s-1.3228-0.24182-1.9222-1.081c-0.60559-0.84534-1.6907-1.9304-1.6907-3.1334 0-1.207 0.11987-2.1682 0.48363-3.739 0.36171-1.5626 1.4448-2.4079 1.4448-2.4079l0.7213-2.1681z"/>
  <line x1="237.62" x2="237.74" y1="-29.457" y2="-34.512"/>
 </g>
 <path d="m226.58-40.076s0.99 3.7927 0.078522 6.8413c-0.90529 3.0466-2.3852 5.686-2.3852 5.686s6.3412-5.3573 6.1758-6.676c-0.16948-1.3166-0.16948-3.7038-0.16948-3.7038" stroke="#fff" stroke-linecap="round" stroke-linejoin="round" stroke-width=".645"/>
</svg>
