<?xml version='1.0' encoding='utf-8'?>
<svg xmlns="http://www.w3.org/2000/svg" width="1052.3622" height="744.09448" id="svg4602" version="1.1"> <defs id="defs4604"> </defs> <metadata id="metadata4607"> </metadata> <g id="layer1" transform="translate(0,-308.2677)"> <path style="opacity:1;color:#000000;fill:#4d4d4d;fill-opacity:1;fill-rule:nonzero;stroke:none;stroke-width:4.09999990000000030;stroke-linecap:round;stroke-linejoin:round;stroke-miterlimit:4;stroke-opacity:1;stroke-dasharray:none;stroke-dashoffset:0;marker:none;visibility:visible;display:inline;overflow:visible;enable-background:accumulate" id="path4610" d="m 666.61845,407.47861 a 166.65462,132.9269 0 1 1 -333.30923,0 166.65462,132.9269 0 1 1 333.30923,0 z" transform="translate(0,308.2677)"/> <g id="g5141"> <path id="path4614" d="m 374.31156,180.64318 -68.45845,5.13546 -68.45845,5.13545 c 0,0 14.69352,-44.72466 24.9152,-65.8505 9.79098,-20.23567 12.22786,-56.225734 34.64838,-57.858459 23.51603,-1.712503 31.51196,35.268879 44.7499,54.780239 12.5595,18.51141 32.60342,58.65781 32.60342,58.65781 z" style="color:#000000;fill:#4d4d4d;fill-opacity:1;fill-rule:nonzero;stroke:none;stroke-width:4.0999999;marker:none;visibility:visible;display:inline;overflow:visible;enable-background:accumulate" transform="matrix(1.2405888,-0.4750977,0.4750977,1.2405888,-40.284284,546.95487)"/> <path style="color:#000000;fill:#999999;fill-opacity:1;fill-rule:nonzero;stroke:none;stroke-width:4.0999999;marker:none;visibility:visible;display:inline;overflow:visible;enable-background:accumulate" d="m 478.16187,584.394 c 0,0 -48.39765,0.38618 -69.49382,10.58412 -19.81282,9.57757 -48.33133,44.97315 -48.33133,44.97315 0,0 -2.15682,-44.61227 -0.26846,-66.79835 1.80879,-21.25123 -8.24385,-53.96575 11.06703,-63.01985 20.25444,-9.49649 39.88705,20.5564 58.23641,33.35197 17.40897,12.1398 48.79017,40.90896 48.79017,40.90896 z" id="path5138"/> </g> <g id="g5145" transform="matrix(-1,0,0,1,998.49978,0)"> <path transform="matrix(1.2405888,-0.4750977,0.4750977,1.2405888,-40.284284,546.95487)" style="color:#000000;fill:#4d4d4d;fill-opacity:1;fill-rule:nonzero;stroke:none;stroke-width:4.0999999;marker:none;visibility:visible;display:inline;overflow:visible;enable-background:accumulate" d="m 374.31156,180.64318 -68.45845,5.13546 -68.45845,5.13545 c 0,0 14.69352,-44.72466 24.9152,-65.8505 9.79098,-20.23567 12.22786,-56.225734 34.64838,-57.858459 23.51603,-1.712503 31.51196,35.268879 44.7499,54.780239 12.5595,18.51141 32.60342,58.65781 32.60342,58.65781 z" id="path5147"/> <path id="path5149" d="m 478.16187,584.394 c 0,0 -49.44584,-2.43029 -70.81647,7.93881 -20.06693,9.73653 -47.00868,47.61846 -47.00868,47.61846 0,0 -2.15682,-44.61227 -0.26846,-66.79835 1.80879,-21.25123 -8.24385,-53.96575 11.06703,-63.01985 20.25444,-9.49649 39.88705,20.5564 58.23641,33.35197 17.40897,12.1398 48.79017,40.90896 48.79017,40.90896 z" style="color:#000000;fill:#999999;fill-opacity:1;fill-rule:nonzero;stroke:none;stroke-width:4.0999999;marker:none;visibility:visible;display:inline;overflow:visible;enable-background:accumulate"/> </g> <path style="fill:none;stroke:#cccccc;stroke-width:5;stroke-linecap:butt;stroke-linejoin:miter;stroke-miterlimit:4;stroke-opacity:1;stroke-dasharray:none" d="m 398.11935,384.33215 c 7.52391,-50.79493 69.76061,-53.35579 71.4234,1.32265" id="path5151" transform="translate(0,308.2677)"/> <path id="path5155" d="m 525.09429,692.59985 c 7.52391,-50.79493 69.76061,-53.35579 71.4234,1.32265" style="fill:none;stroke:#cccccc;stroke-width:5;stroke-linecap:butt;stroke-linejoin:miter;stroke-miterlimit:4;stroke-opacity:1;stroke-dasharray:none"/> <path style="color:#000000;fill:#808080;fill-opacity:1;fill-rule:nonzero;stroke:none;stroke-width:5;stroke-linecap:round;stroke-linejoin:round;stroke-miterlimit:4;stroke-opacity:1;stroke-dasharray:none;stroke-dashoffset:0;marker:none;visibility:visible;display:inline;overflow:visible;enable-background:accumulate" id="path5157" d="m 525.09429,453.11023 a 26.453114,15.871868 0 1 1 -52.90623,0 26.453114,15.871868 0 1 1 52.90623,0 z" transform="translate(0,308.2677)"/> <path style="color:#000000;fill:#000000;fill-opacity:1;fill-rule:nonzero;stroke:none;stroke-width:5;marker:none;visibility:visible;display:inline;overflow:visible;enable-background:accumulate" id="path5159" d="m 494.67321,460.38486 a 7.9359341,6.6132784 0 1 1 -15.87187,0 7.9359341,6.6132784 0 1 1 15.87187,0 z" transform="matrix(0.93124278,0.36439934,-0.36439934,0.93124278,199.90798,162.55574)"/> <path transform="matrix(-0.93124278,0.36439934,0.36439934,0.93124278,799.01814,162.55574)" d="m 494.67321,460.38486 a 7.9359341,6.6132784 0 1 1 -15.87187,0 7.9359341,6.6132784 0 1 1 15.87187,0 z" id="path5161" style="color:#000000;fill:#000000;fill-opacity:1;fill-rule:nonzero;stroke:none;stroke-width:5;marker:none;visibility:visible;display:inline;overflow:visible;enable-background:accumulate"/> <g id="g5197" transform="matrix(1,0,0,0.70935729,0,220.17852)"> <path style="fill:#ffffff;fill-rule:evenodd;stroke:none" d="m 759.39867,741.71721 1.66122,-9.86106 c -21.66725,-3.22932 -43.47748,-5.01096 -65.26789,-5.75703 -10e-6,0 -10e-6,0 -2e-5,0 -23.24323,-0.79757 -46.50965,-0.40028 -69.6672,1.24498 -22.57477,1.60267 -45.08143,4.37998 -67.24101,8.85048 -19.76956,3.98635 -39.34461,9.27803 -57.89499,17.06303 18.83351,-7.07262 38.49893,-11.58116 58.30692,-14.80048 22.19786,-3.60542 44.63131,-5.50389 67.08233,-6.24238 23.02813,-0.75622 46.07442,-0.26867 69.01373,1.39483 0,0 0,0 10e-6,0 21.5098,1.56139 42.915,4.13364 64.0069,8.10763 z" id="path5177"/> <path id="path5181" d="m 713.6649,754.46969 2.2089,-9.75298 c -35.72521,-7.21512 -72.14491,-9.81483 -108.30775,-9.03313 0,0 -10e-6,0 -10e-6,0 -18.35804,0.39363 -36.70528,1.74501 -54.83908,4.45737 0,0 0,0 0,0 -16.30056,2.43636 -32.49128,5.94056 -47.97191,11.44963 15.723,-4.77357 31.96433,-7.48435 48.26159,-9.14452 0,0 10e-6,0 10e-6,0 18.12552,-1.84431 36.35342,-2.32008 54.53981,-1.85507 35.85413,0.92237 71.59546,5.18599 106.10844,13.8787 z" style="fill:#ffffff;fill-rule:evenodd;stroke:none"/> <path style="fill:#ffffff;fill-rule:evenodd;stroke:none" d="m 650.45178,757.55736 2.25486,-9.74246 c -25.09216,-4.93085 -50.60379,-6.60739 -75.89033,-5.91856 -24.37347,0.64018 -49.06887,3.27319 -71.8756,11.5248 23.31131,-6.69469 47.73886,-7.56788 71.84392,-6.61495 24.97021,1.01306 49.79583,4.34957 73.66715,10.75117 z" id="path5185"/> </g> <g id="g5202" transform="matrix(-1,0,0,0.7093573,988.25898,220.17852)"> <path id="path5204" d="m 759.39867,741.71721 1.66122,-9.86106 c -21.66725,-3.22932 -43.47748,-5.01096 -65.26789,-5.75703 -10e-6,0 -10e-6,0 -2e-5,0 -23.24323,-0.79757 -46.50965,-0.40028 -69.6672,1.24498 -22.57477,1.60267 -45.08143,4.37998 -67.24101,8.85048 -19.76956,3.98635 -39.34461,9.27803 -57.89499,17.06303 18.83351,-7.07262 38.49893,-11.58116 58.30692,-14.80048 22.19786,-3.60542 44.63131,-5.50389 67.08233,-6.24238 23.02813,-0.75622 46.07442,-0.26867 69.01373,1.39483 0,0 0,0 10e-6,0 21.5098,1.56139 42.915,4.13364 64.0069,8.10763 z" style="fill:#ffffff;fill-rule:evenodd;stroke:none"/> <path style="fill:#ffffff;fill-rule:evenodd;stroke:none" d="m 713.6649,754.46969 2.2089,-9.75298 c -35.72521,-7.21512 -72.14491,-9.81483 -108.30775,-9.03313 0,0 -10e-6,0 -10e-6,0 -18.35804,0.39363 -36.70528,1.74501 -54.83908,4.45737 0,0 0,0 0,0 -16.30056,2.43636 -32.49128,5.94056 -47.97191,11.44963 15.723,-4.77357 31.96433,-7.48435 48.26159,-9.14452 0,0 10e-6,0 10e-6,0 18.12552,-1.84431 36.35342,-2.32008 54.53981,-1.85507 35.85413,0.92237 71.59546,5.18599 106.10844,13.8787 z" id="path5206"/> <path id="path5208" d="m 650.45178,757.55736 2.25486,-9.74246 c -25.09216,-4.93085 -50.60379,-6.60739 -75.89033,-5.91856 -24.37347,0.64018 -49.06887,3.27319 -71.8756,11.5248 23.31131,-6.69469 47.73886,-7.56788 71.84392,-6.61495 24.97021,1.01306 49.79583,4.34957 73.66715,10.75117 z" style="fill:#ffffff;fill-rule:evenodd;stroke:none"/> </g> <path style="fill:none;stroke:#808080;stroke-width:3.5;stroke-linecap:butt;stroke-linejoin:miter;stroke-miterlimit:4;stroke-opacity:1;stroke-dasharray:none" d="m 499.30251,467.65945 c 1.2591,24.64628 36.09439,22.85109 34.38904,0" id="path5216" transform="translate(0,308.2677)"/> <path id="path5218" d="m 499.36311,775.26582 c -1.2591,24.64628 -36.09439,22.85109 -34.38904,0" style="fill:none;stroke:#808080;stroke-width:3.5;stroke-linecap:butt;stroke-linejoin:miter;stroke-miterlimit:4;stroke-opacity:1;stroke-dasharray:none"/> </g> </svg>