<?xml version="1.0" encoding="UTF-8"?>
<svg viewBox="0 0 409.67 169.71" xmlns="http://www.w3.org/2000/svg">
 <path d="m157.68 56.925s-10.74-6.1526 1.0743-15.497c11.81-9.3407 23.193-15.896 23.193-15.896l-3.0036-3.7762s-23.62 13.512-24.059 14.104c-0.42744 0.6053-15.464 8.3502-15.464 8.3502l6.0148 12.12 12.245 0.595z" fill="#3f7f00" stroke="#fff" stroke-linecap="round" stroke-linejoin="round" stroke-width=".645"/>
 <g fill="#3f7f00" stroke="#fff" stroke-linecap="round" stroke-linejoin="round" stroke-width=".645">
  <path d="m110 32.252s-4.1151-1.4066-9.5314-0.79786c-5.4126 0.60183-8.8883 0.79786-10.398 2.0084-1.5167 1.1968-11.487 5.4098-11.487 5.4098s-2.5984 2.005-3.0297 3.1984c-0.43865 1.2106-0.43865 4.409-0.43865 4.409l16.464 3.0092 18.42-17.237z"/>
  <path d="m68.193 114.63s-6.7248 4.213-7.5984 8.4225c-0.86241 4.2095-1.7286 10.617-0.42376 12.02 1.2973 1.4135 7.3604 3.0127 11.699 0.40585 4.3345-2.5931 1.0818-10.82 1.0818-10.82l-4.7583-10.028z"/>
  <path d="m111.95 131.26s-3.0297 8.4224-8.6727 9.2237c-5.6319 0.80133-13.003 2.005-14.082 1.0042-1.0855-1.0042-2.8215-4.6118-2.171-5.8121 0.65055-1.1968 8.6689-6.0185 10.62-7.4147 1.9479-1.4066 5.8438-5.6127 5.8438-5.6127l8.4608 8.6116z"/>
  <path d="m76.42 103.61s-6.0668 6.806-6.9329 11.016c-0.87358 4.213-4.1151 18.042 0 20.649 4.1114 2.6 11.487 2.404 12.996 2.1942 1.513-0.19261 1.7397-1.5993 6.933-2.9955 5.1932-1.4066 14.081-11.831 14.081-11.831l-7.3641-12.03-13.004-9.4129-6.7099 2.4108z"/>
  <path d="m55.402 84.166s-6.5054 5.8121-8.8808 10.228c-2.3866 4.4089-3.0297 13.629-2.171 14.42 0.86983 0.80817 6.7173-1.1968 8.8883-3.4048 2.1635-2.1976 5.8512-16.037 5.8512-16.037l-3.6877-5.2068z"/>
  <path d="m55.61 91.175s-9.089 17.037-7.7842 24.06c1.2937 7.009 1.2937 8.2126 1.2937 8.2126l7.576 4.01s5.197-1.3997 7.814-2.201c2.5948-0.8082 15.163-22.048 15.163-22.048l1.3048-3.4083-25.368-8.6253z"/>
  <path d="m60.814 66.527s-18.319 15.947-1.7249 29.463c9.1039 7.4147 20.364 4.8078 20.364 4.8078l0.8587-24.053-19.498-10.218z"/>
  <path d="m115.2 104.22s-3.6839 10.617-6.5054 13.42c-2.8141 2.7994-7.5761 5.8121-11.911 4.6084-4.3419-1.2003-4.1151-12.622-2.8214-18.028 1.3085-5.4167 21.237 0 21.237 0z"/>
  <path d="m95.271 46.081s-21.018-2.2045-23.397-1.6061c-2.3865 0.60873-12.141 3.219-13.431 11.831-1.3048 8.615 4.7694 13.633 4.7694 13.633s6.275 6.0082 9.9552 6.2077c3.6802 0.2029 9.3158-1.4066 9.3158-1.4066l12.788-28.658z"/>
  <path d="m118.44 97.4s-13.647 21.849-33.148 9.0106c-19.487-12.824-13.424-22.846-6.275-34.869 7.1448-12.03 12.353-10.221 12.353-10.221l29.672 3.0058 2.8178 22.647-5.4199 10.427z"/>
  <path d="m163.3 78.763s1.2936 12.818-1.7361 17.23c-3.0296 4.4056-6.7136 8.2264-14.089 7.2221-7.3567-1.0042 0.44238-29.267 0.44238-29.267l15.383 4.8148z"/>
  <path d="m152.46 79.953s0.43118 19.851-3.2601 24.655c-3.6765 4.8182-15.803 6.8232-15.803 6.8232l-1.7249-23.658 20.788-7.8206z"/>
  <path d="m138.39 93.778s2.5836 17.44 0.42378 21.852c-2.1672 4.4055-3.4609 7.4182-9.9663 10.424-6.4943 3.0092-10.182 3.8105-13.435 4.01-3.2527 0.19608-5.1969 1.0042-7.1486-0.19948-1.9479-1.2036-5.8512-6.0253-4.9813-11.029 0.86243-5.0074 12.568-22.447 12.568-22.447l22.539-2.6103z"/>
  <path d="m151.16 76.548s-1.3048 9.6261-7.5872 16.838-11.26 9.0209-15.591 10.018c-4.3271 1.0042-15.163 0.81165-15.163 0.81165s-3.8958-19.448 2.1635-30.67c6.063-11.218 9.0964-15.837 9.0964-15.837l17.119 1.2037 9.9626 17.636z"/>
  <path d="m121.26 31.052l-14.293-0.2063-3.9032 2.4108-3.8921 3.2087s-1.3011-0.20981-2.814 0.59496c-1.5204 0.80131-3.6877 1.1968-5.2006 3.4082-1.5204 2.2079-3.4758 3.8105-5.2044 6.2179s-5.4125 7.0089-5.4125 7.0089h-1.3048s-3.907 3.0127-3.907 3.8106c0 0.80477-1.0743 4.8148 0.44238 5.8121 1.5167 1.0042 4.7694 4.0032 4.7694 4.0032s4.9776 5.2206 20.583 4.6187c15.591-0.60527 23.609-8.6219 23.609-8.6219l5.6393-5.6161-9.1113-26.65z"/>
  <path d="m150.95 51.291s18.42 0 19.494 13.227c1.0966 13.234-6.5017 18.846-6.5017 18.846l-17.977 0.7979s-8.8808-7.8137-9.5314-14.434c-0.6543-6.61 1.0892-16.824 14.516-18.437z"/>
  <path d="m142.93 44.475s2.3754-7.2153 1.5093-9.8153c-0.86992-2.6034-3.8922-6.4174-8.4422-9.6261-4.5575-3.1984-9.5351-4.5981-12.342-4.4055-2.8253 0.20634-6.2862 0.40239-6.2862 0.40239s-1.736 8.0166-1.5204 9.8187c0.21193 1.809 13.427 11.225 13.427 11.225l13.654 2.4005z"/>
  <path d="m144.44 42.274s-6.4906-8.4156-11.048-9.0174c-4.5501-0.60186-15.174 0-15.174 0l-6.063 7.0158s0.44238 9.0208 2.8215 12.02c2.3903 3.0058 1.7286 7.4251 6.063 7.6211 4.3382 0.19259 8.234 2.005 9.1039 2.2079 0.8624 0.20634 3.6802 1.0008 3.6802 1.0008h8.8883s2.3754-0.40239 3.4535-1.7987c1.0892-1.4066 3.0259-3.2121 3.0259-5.2137 0-2.0084-0.20073-3.6076-0.85124-6.2214-0.6543-2.6-2.5985-4.0066-2.5985-4.0066l-1.3011-3.6077z"/>
  <line x1="145.75" x2="145.52" y1="52.292" y2="43.88"/>
 </g>
 <path d="m165.6 34.622s-1.7844 6.3108-0.13756 11.384c1.6282 5.0693 4.2899 9.4611 4.2899 9.4611s-11.405-8.9142-11.104-11.108c0.29362-2.1907 0.29362-6.1629 0.29362-6.1629" fill="#3f7f00" stroke="#fff" stroke-linecap="round" stroke-linejoin="round" stroke-width=".645"/>
 <path d="m187.61 45.338s12.461 1.9191 10.238-12.309-6.1039-26.103-6.1039-26.103l4.9404-1.0077s8.1336 24.576 8.0258 25.281c-0.085495 0.71532 5.6913 15.713 5.6913 15.713l-13.148 5.4442-9.643-7.0193z" fill="#3f7f00" stroke="#fff" stroke-linecap="round" stroke-linejoin="round" stroke-width=".645"/>
 <g fill="#3f7f00" stroke="#fff" stroke-linecap="round" stroke-linejoin="round" stroke-width=".645">
  <path d="m163.32 55.862s-4.0966 1.4547-7.7433 5.2206c-3.6393 3.7487-6.115 6.0116-6.3902 7.8309-0.28256 1.8365-4.7806 11.077-4.7806 11.077s-0.53537 3.0952 0.003677 4.2576c0.53903 1.1796 2.8215 3.5904 2.8215 3.5904l14.52-7.7828 1.5688-24.194h-9.2e-5z"/>
  <path d="m190.58 143.31s-2.0594 7.2737 0.28249 10.96c2.3531 3.6902 6.275 9.0346 8.2526 9.3063 1.9665 0.26486 7.6838-2.2354 9.0705-6.8336 1.4088-4.605-6.892-8.8075-6.892-8.8075l-10.714-4.6257z"/>
  <path d="m235.34 129.13s3.7174 8.1749 0.040924 12.216c-3.658 4.0375-8.3381 9.437-9.8734 9.3441-1.5204-0.09288-5.3828-1.7437-5.762-3.054-0.37544-1.3 2.2305-9.805 2.6989-12.047 0.4498-2.2457 0.39401-7.7862 0.39401-7.7862l12.502 1.3275z"/>
  <path d="m188.9 130s0.29741 8.8179 2.6468 12.515c2.3494 3.7005 9.7618 16.081 14.706 15.528 4.9553-0.56064 10.349-5.1896 11.338-6.2765 1.0074-1.073 0.16359-2.2526 3.0817-6.4828 2.9107-4.2232 2.1598-17.478 2.1598-17.478l-14.111-4.5535-16.49 0.8426-3.3308 5.905z"/>
  <path d="m159.25 128.19s-0.74721 8.333 0.60593 13.103c1.3605 4.7701 7.4348 12.095 8.6541 12.174 1.2194 0.07225 4.1932-4.9936 4.2564-7.9788 0.055756-2.9886-7.037-15.624-7.037-15.624l-6.4794-1.6749z"/>
  <path d="m164.41 133.34s5.2861 18.362 11.267 22.846c5.9813 4.4812 6.84 5.3789 6.84 5.3789l8.5575-1.6095s2.9033-4.2198 4.2973-6.4071c1.3717-2.1907-4.3159-25.828-4.3159-25.828l-1.4498-3.3566-25.196 8.9761z"/>
  <path d="m150.75 111.63s-2.42 23.159 19.687 23.218c12.137 0.024094 18.747-8.811 18.747-8.811l-16.49-18.616-21.944 4.2094z"/>
  <path d="m218.49 106.8s4.8029 10.238 4.6839 14.07c-0.11153 3.8209-1.5613 8.9933-5.669 10.734-4.1189 1.7333-12.1-6.9918-14.985-11.855-2.8772-4.856 15.97-12.948 15.97-12.948z"/>
  <path d="m162.08 75.248s-17.364 11.153-18.728 13.062c-1.368 1.9087-6.84 9.8187-1.6803 17.086 5.1672 7.2738 13.29 7.3426 13.29 7.3426s9.0184 0.68778 11.933-1.4066c2.907-2.0945 5.9999-6.7339 5.9999-6.7339l-10.814-29.35z"/>
  <path d="m216.09 99.694s5.2973 24.748-18.502 26.997c-23.81 2.2458-26.386-8.9898-29.576-22.382-3.1895-13.409 2-15.225 2-15.225l24.468-15.841 18.256 15.311 3.3531 11.139z"/>
  <path d="m236.53 58.331s10.111 8.8489 10.97 14.008c0.85507 5.169 0.81042 10.28-5.4534 14.014-6.2452 3.7418-20.516-22.262-20.516-22.262l15-5.7606h-6.1e-5z"/>
  <path d="m229.24 65.836s14.457 14.658 15.115 20.518c0.65796 5.8672-7.037 14.768-7.037 14.768l-18.163-16.724 10.085-18.561z"/>
  <path d="m228.51 84.82s14.375 11.528 15.888 16.167c1.5055 4.6394 2.6765 7.6933-0.063263 13.908-2.7508 6.2282-4.9552 9.0828-7.2415 11.218-2.3048 2.1255-3.2044 3.9137-5.5277 4.1958-2.3196 0.28543-8.6912-0.94926-11.602-5.2344-2.9255-4.3024-6.5389-24.552-6.5389-24.552l15.085-15.703z"/>
  <path d="m225.82 64.064s5.8846 8.0304 6.3084 17.285c0.40894 9.2581-2.0557 13.653-4.6058 17.044-2.539 3.3979-10.814 9.8531-10.814 9.8531s-16.795-12.24-20.226-24.373c-3.4312-12.144-4.4423-17.454-4.4423-17.454l13.725-9.5436 20.055 7.1877v3.1e-5z"/>
  <path d="m170.92 48.083l-10.896 8.5703-1.2193 4.1889-0.6394 4.7873s-1.1263 0.64313-1.6951 2.177c-0.56508 1.5201-1.9145 3.1537-1.4796 5.7365 0.42755 2.5725 0.10408 4.9661 0.51302 7.8309 0.40889 2.8648 0.92567 8.5875 0.92567 8.5875l-0.974 0.7875s-0.79178 4.6428-0.21187 5.2481c0.55756 0.60183 2.6133 4.2714 4.4646 4.1029 1.8513-0.17199 6.4348 0.11004 6.4348 0.11004s7.4646 0.87351 18.765-9.093c11.308-9.9597 11.613-20.879 11.613-20.879l0.2379-7.6521-25.84-14.503z"/>
  <path d="m207.67 45.197s13.851-11.225 24.085-1.9328c10.256 9.2891 8.5425 18.131 8.5425 18.131l-12.948 11.576s-12.256-0.46773-17.449-5.0486c-5.2118-4.5706-11.186-13.316-2.2304-22.726z"/>
  <path d="m196.79 44.97s-3.3493-6.8817-5.866-8.3124c-2.5018-1.4341-7.5017-2.4452-13.208-2.0772-5.7099 0.36112-10.45 2.3352-12.427 4.2129-1.974 1.8674-4.4386 4.1338-4.4386 4.1338s4.4125 7.0846 5.8549 8.3055c1.4535 1.2312 18.104 0.25793 18.104 0.25793l11.981-6.5206z"/>
  <path d="m196.35 42.384s-10.885-2.3661-14.74-0.041271c-3.8438 2.3214-11.398 9.2512-11.398 9.2512l0.4386 8.9761s6.7545 6.5206 10.684 7.3185c3.9368 0.81163 6.5872 4.5224 9.9886 2.0394 3.4051-2.5002 7.6132-3.5217 8.4125-3.9 0.80296-0.37143 3.4869-1.4995 3.4869-1.4995l6.6838-5.4166s1.5056-1.7471 1.3234-3.4598c-0.18582-1.7196-0.014862-4.268-1.4386-5.7743-1.4275-1.5063-2.7323-2.5793-5.0854-4.1304-2.3346-1.5751-4.8066-1.4341-4.8066-1.4341l-3.5501-1.9293z"/>
  <line x1="204.48" x2="198.31" y1="49.132" y2="42.934"/>
 </g>
 <path d="m197.54 23.737s-3.1524 5.8259-7.9924 8.6494c-4.8363 2.8063-9.9663 4.4881-9.9663 4.4881s14.925 0.25795 16.264-1.582c1.3346-1.8227 4.1746-4.8148 4.1746-4.8148" fill="#3f7f00" stroke="#fff" stroke-linecap="round" stroke-linejoin="round" stroke-width=".645"/>
 <path d="m235.11 56.925s10.74-6.1526-1.078-15.497c-11.818-9.3407-23.196-15.896-23.196-15.896l3.0074-3.7762s23.628 13.512 24.066 14.104c0.42004 0.6053 15.45 8.3502 15.45 8.3502l-6.0035 12.12-12.245 0.595z" fill="#3f7f00" stroke="#fff" stroke-linecap="round" stroke-linejoin="round" stroke-width=".645"/>
 <g fill="#3f7f00" stroke="#fff" stroke-linecap="round" stroke-linejoin="round" stroke-width=".645">
  <path d="m282.79 32.252s4.1114-1.4066 9.5314-0.79786c5.4088 0.60183 8.8809 0.79786 10.394 2.0084 1.5168 1.1968 11.49 5.4098 11.49 5.4098s2.5985 2.005 3.0296 3.1984c0.43497 1.2106 0.43497 4.409 0.43497 4.409l-16.472 3.0092-18.409-17.237z"/>
  <path d="m324.59 114.63s6.7359 4.213 7.5984 8.4225c0.86234 4.2095 1.7324 10.617 0.42743 12.02-1.2936 1.4135-7.3679 3.0127-11.695 0.40585-4.3307-2.5931-1.089-10.82-1.089-10.82l4.7581-10.028z"/>
  <path d="m280.84 131.26s3.026 8.4224 8.6727 9.2237c5.6319 0.80133 13 2.005 14.082 1.0042 1.0818-1.0042 2.8103-4.6118 2.1672-5.8121-0.65051-1.1968-8.669-6.0185-10.617-7.4147-1.9479-1.4066-5.8401-5.6127-5.8401-5.6127l-8.4645 8.6116z"/>
  <path d="m316.37 103.61s6.0668 6.806 6.944 11.016c0.85141 4.213 4.1042 18.042 0 20.649-4.1262 2.6-11.502 2.404-13.003 2.1942-1.5204-0.19261-1.7472-1.5993-6.9366-2.9955-5.1895-1.4066-14.074-11.831-14.074-11.831l7.3605-12.03 12.996-9.4129 6.7135 2.4108z"/>
  <path d="m337.39 84.166s6.5055 5.8121 8.8809 10.228c2.3866 4.4089 3.0259 13.629 2.1784 14.42-0.8848 0.80817-6.721-1.1968-8.8995-3.4048-2.1598-2.1976-5.8474-16.037-5.8474-16.037l3.6877-5.2068z"/>
  <path d="m337.18 91.175s9.0891 17.037 7.7844 24.06c-1.2938 7.009-1.2938 8.2126-1.2938 8.2126l-7.5722 4.01s-5.2118-1.3997-7.814-2.201c-2.5948-0.8082-15.163-22.048-15.163-22.048l-1.3085-3.4083 25.367-8.6253z"/>
  <path d="m331.97 66.527s18.323 15.947 1.7286 29.463c-9.1038 7.4147-20.36 4.8078-20.36 4.8078l-0.8624-24.053 19.494-10.218z"/>
  <path d="m277.59 104.22s3.6839 10.617 6.498 13.42c2.8141 2.7994 7.576 5.8121 11.914 4.6084 4.3383-1.2003 4.1115-12.622 2.8215-18.028-1.3085-5.4167-21.234 0-21.234 0z"/>
  <path d="m297.52 46.081s21.011-2.2045 23.408-1.6061c2.3864 0.60873 12.13 3.219 13.42 11.831 1.3086 8.615-4.7694 13.633-4.7694 13.633s-6.2674 6.0082-9.9551 6.2077c-3.6914 0.2029-9.3158-1.4066-9.3158-1.4066l-12.788-28.658z"/>
  <path d="m274.34 97.4s13.643 21.849 33.144 9.0106c19.49-12.824 13.438-22.846 6.2786-34.869-7.141-12.03-12.353-10.221-12.353-10.221l-29.668 3.0058-2.8252 22.647 5.4237 10.427z"/>
  <path d="m229.49 78.763s-1.2936 12.818 1.7324 17.23c3.0334 4.4056 6.7172 8.2264 14.089 7.2221 7.3568-1.0042-0.44608-29.267-0.44608-29.267l-15.375 4.8148z"/>
  <path d="m240.33 79.953s-0.43121 19.851 3.2453 24.655c3.6839 4.8182 15.818 6.8232 15.818 6.8232l1.7286-23.658-20.791-7.8206z"/>
  <path d="m254.4 93.778s-2.591 17.44-0.42749 21.852c2.1784 4.4055 3.4683 7.4182 9.9738 10.424 6.4944 3.0092 10.174 3.8105 13.427 4.01 3.2527 0.19608 5.197 1.0042 7.1559-0.19948 1.9479-1.2036 5.8475-6.0253 4.9813-11.029-0.86618-5.0074-12.568-22.447-12.568-22.447l-22.542-2.6103z"/>
  <path d="m241.62 76.548s1.3085 9.6261 7.5872 16.838c6.2824 7.2153 11.267 9.0209 15.594 10.018 4.327 1.0042 15.167 0.81165 15.167 0.81165s3.8922-19.448-2.1635-30.67c-6.063-11.218-9.1038-15.837-9.1038-15.837l-17.115 1.2037-9.9663 17.636z"/>
  <path d="m271.53 31.052l14.293-0.2063 3.8922 2.4108 3.918 3.2087s1.2974-0.20981 2.803 0.59496c1.5204 0.80131 3.6876 1.1968 5.2044 3.4082 1.513 2.2079 3.4721 3.8105 5.197 6.2179s5.4162 7.0089 5.4162 7.0089h1.3048s3.8958 3.0127 3.8958 3.8106c0 0.80477 1.0818 4.8148-0.42374 5.8121-1.5204 1.0042-4.7732 4.0032-4.7732 4.0032s-4.9813 5.2206-20.583 4.6187c-15.587-0.60527-23.609-8.6219-23.609-8.6219l-5.6394-5.6161 9.1039-26.65z"/>
  <path d="m241.84 51.291s-18.412 0-19.487 13.227c-1.0966 13.234 6.4906 18.846 6.4906 18.846l17.981 0.7979s8.8883-7.8137 9.5388-14.434c0.63937-6.61-1.0892-16.824-14.524-18.437z"/>
  <path d="m249.86 44.475s-2.3791-7.2153-1.5167-9.8153c0.86621-2.6034 3.8996-6.4174 8.4496-9.6261 4.5576-3.1984 9.524-4.5981 12.338-4.4055 2.8289 0.20634 6.2861 0.40239 6.2861 0.40239s1.7361 8.0166 1.5204 9.8187c-0.21191 1.809-13.431 11.225-13.431 11.225l-13.646 2.4005z"/>
  <path d="m248.34 42.274s6.498-8.4156 11.052-9.0174 15.174 0 15.174 0l6.0593 7.0158s-0.43121 9.0208-2.8178 12.02c-2.3903 3.0058-1.7286 7.4251-6.0631 7.6211-4.3419 0.19259-8.2377 2.005-9.1038 2.2079-0.86249 0.20634-3.6802 1.0008-3.6802 1.0008h-8.8883s-2.3791-0.40239-3.4572-1.7987c-1.0892-1.4066-3.0408-3.2121-3.0408-5.2137 0-2.0084 0.21564-3.6076 0.86981-6.2214 0.65057-2.6 2.5985-4.0066 2.5985-4.0066l1.2973-3.6077z"/>
  <line x1="247.04" x2="247.26" y1="52.292" y2="43.88"/>
 </g>
 <path d="m227.19 34.622s1.7806 6.3108 0.14124 11.384c-1.6282 5.0693-4.2899 9.4611-4.2899 9.4611s11.405-8.9142 11.108-11.108c-0.30484-2.1907-0.30484-6.1629-0.30484-6.1629" fill="#3f7f00" stroke="#fff" stroke-linecap="round" stroke-linejoin="round" stroke-width=".645"/>
</svg>
