<?xml version='1.0' encoding='utf-8'?>
<svg xmlns="http://www.w3.org/2000/svg" id="95cfb264-c02d-4f95-b3c3-a0dcd5bef81b" data-name="b0097386-a44c-434a-92a6-f11294c5256c" width="1926.3158" height="312.2807" viewBox="0 0 1926.3158 312.2807"><title>banderines lavanda</title><g id="50ea1ef8-df5c-42b4-a221-348283e3dd23" data-name="900e4245-90a1-4964-a691-f56ff58b71ea"><path d="M683.3432,130.4193l-1.60059.30664c-28.51318,5.46289-57.33252,9.79834-85.6582,12.88574l-1.60156.1748.37744,1.56641a251.80045,251.80045,0,0,0,29.1792,71.11229c6.29785,10.4458,13.458,20.582,20.394,30.40088l26.18408,37.06738.87744-2.68066c5.90088-18.03369,7.02539-37.332,8.11279-55.998l2.86084-49.0918c.79834-13.69971,1.70264-29.22754.95605-44.11572Z" fill="#b57edc"/><path d="M539.91107,148.19908l-1.47607.07764c-31.30078,1.65283-62.938,1.854-94.03076.59912l-2.07031-.0835,21.20117,61.791c4.33252,12.627,8.8125,25.68311,14.45264,37.998a205.09889,205.09889,0,0,0,28.1875,45.022l1.58887,1.92822.83984-2.35352c4.45117-12.47363,8.15869-25.36865,11.74365-37.83936l-1.35352-.42139,1.3623.3916c9.8125-34.13721,19.959-69.43652,19.5708-105.63184Z" fill="#b57edc"/><path d="M941.55365,48.78307C911.9433,61.77428,881.8764,73.69078,852.18842,84.20153l-1.61719.57227.86768,1.48047c7.48389,12.769,14.896,25.165,23.27979,36.44434,6.61084,8.89307,14.03467,17.38525,21.21338,25.59814l54.10938,61.9043L943.455,47.94859Z" fill="#b57edc"/><path d="M57.68747,54.08727l-1.75586-.81982-.24951,1.92188c-2.9458,22.70947-2.94727,45.91943-2.94873,68.36573l-.00342,65.38672c-.00049,8.67139-.001,19.46387,4.03027,28.39551l1.14014,2.52539,1.38037-2.40234c24.83057-43.2002,51.76807-86.10107,80.06592-127.51025l1.02637-1.50244-1.70752-.62793C111.42184,77.805,84.17721,66.45543,57.68747,54.08727Z" fill="#b57edc"/><path d="M179.78268,101.94957l-1.96924-.63037.12207,2.06348a475.83564,475.83564,0,0,0,36.3916,156.63527l1.44678,3.44238,1.20166-3.53516a1217.29911,1217.29911,0,0,1,53.59375-131.71877l.76758-1.60937-1.74072-.38477C239.53757,119.56725,209.32028,111.40416,179.78268,101.94957Z" fill="#b57edc"/><path d="M311.851,134.59605l-2.1582-.37988.53809,2.124c12.15283,47.95947,25.92676,102.31836,48.83252,151.73338l1.55225,3.34912,1.08789-3.52783a1378.38327,1378.38327,0,0,0,35.31836-140.48926l.30273-1.54395-1.56689-.14014C367.76364,143.21715,339.53366,139.4735,311.851,134.59605Z" fill="#b57edc"/><path d="M818.808,116.37779l1.39844-.23047C819,108.827,817.63959,102.41441,813.19873,98.0692l-.60742-.59424-.81055.25586c-27.1001,8.55518-54.55273,16.15527-81.59521,22.59033l-1.67139.39795.708,1.56494A347.49588,347.49588,0,0,0,770.291,190.79381c9.05371,11.77441,19.0127,23.13818,28.64355,34.12793l27.60791,31.50243-.2998-4.20605c-.936-13.14111-.14893-26.46191.61328-39.34473.52246-8.84033,1.063-17.98242,1.042-26.94971-.05566-23.45312-3.93652-46.99854-7.68994-69.76855Z" fill="#b57edc"/><path d="M977.36957,57.10582l-1.63135-.75049-.35107,1.76123c-9.82861,49.31152-5.58984,99.03906.49707,154.26611l.46094,4.18164,2.16309-3.60791c24.69678-41.18506,51.65094-81.73584,80.11285-120.52588l1.11816-1.52393-1.77637-.64648C1030.9082,80.412,1003.792,69.2567,977.36957,57.10582Z" fill="#b57edc"/><path d="M1870.37195,207.37779c-3.30566-35.54053-6.43652-73.61522-9.4668-110.47266-1.12793-13.69873-2.252-27.3584-3.38184-40.87842l-.16406-1.96826-1.8125.78613c-27.19824,11.80518-54.97363,22.73828-82.55566,32.49512l-1.71094.60547,1.002,1.51318a829.573,829.573,0,0,0,95.66016,119.03711l2.80273,2.89307Z" fill="#b57edc"/><path d="M1517.48926,146.25768l-1.65723.17822.44238,1.60693c3.56934,12.97705,10.18652,24.92773,16.58594,36.48438l55.373,100.01854.93262-3.32227c4.877-17.36279,6.125-35.67187,7.332-53.37793l6.42578-94.292-1.80078.33887C1573.33984,139.12,1545.20215,143.28014,1517.48926,146.25768Z" fill="#b57edc"/><path d="M1743.14844,97.48033l-1.78906.57813c-29.98633,9.69141-60.4668,18.20947-90.59473,25.31787l-1.77637.41943.8457,1.61719a478.88468,478.88468,0,0,0,93.459,124.30079l2.39551,2.2915.001-3.31445c.02344-49.48193-.81055-99.72412-2.47754-149.33154Z" fill="#b57edc"/><path d="M1407.37012,152.21422c-14.33984.00049-29.04394-.32031-43.7041-.95361l-2.09277-.09033.69434,1.97559c16.07715,45.81543,34.69922,94.44873,61.85742,139.69289l1.7207,2.86768.86328-3.23145c12.24121-45.82471,22.67676-92.85889,31.01855-139.79541l.31055-1.74854-1.77344.085C1439.68359,151.81041,1423.2334,152.21373,1407.37012,152.21422Z" fill="#b57edc"/><path d="M1100.54981,104.74059,1099,104.25133l-.27441,1.60156c-2.17481,12.70654.60254,25.67627,4.17188,40.09619,9.21484,37.21973,19.4248,74.78125,30.34668,111.64162l1.34863,4.55225,1.36719-4.54687a635.6942,635.6942,0,0,1,53.91992-127.12988l.93262-1.666-1.86426-.41064C1159.27051,121.85094,1129.5293,113.89439,1100.54981,104.74059Z" fill="#b57edc"/><path d="M1231.95117,136.91l-2.18457-.38379.56934,2.144c11.01172,41.41211,23.49219,88.34961,48.68848,128.35988.1377.21973.26563.40234.37793.55322l1.51269,2.022.93848-2.34473.0918-.24463a1015.46456,1015.46456,0,0,0,35.14746-117.22363l.373-1.58838-1.625-.14746C1287.80664,145.51158,1259.582,141.76109,1231.95117,136.91Z" fill="#b57edc"/></g><g id="cef3b4b5-b90f-40d5-8e46-5f0ead5c2751" data-name="98fafbb3-efe6-4623-b9f5-81b2a5680136"><path d="M37.91019,42.23174c189.61584,93.65664,510.48678,180.63873,913.17135,0,189.61585,93.65664,515.76721,184.75822,918.45178,4.11948" fill="none" stroke="#000" stroke-linecap="round" stroke-miterlimit="10" stroke-width="7.08661"/><path d="M55.094,51.11021c-3.48479,23.94648-3.493,48.2459-3.49426,72.44461l-.00342,65.38675c-.00059,11.38426.20161,23.48955,6.40163,33.0374q39.73216-69.512,85.12954-135.57475" fill="none" stroke="#000" stroke-linecap="round" stroke-linejoin="round" stroke-width="5.10236"/><path d="M176.65916,101.22969a479.72609,479.72609,0,0,0,39.25969,165.38387A1211.07657,1211.07657,0,0,1,272.61948,126.5305" fill="none" stroke="#000" stroke-linecap="round" stroke-linejoin="round" stroke-width="5.10236"/><path d="M308.29462,133.3168c13.90036,54.875,27.95526,110.1815,52.54657,161.16928A1373.402,1373.402,0,0,0,398.60074,145.268" fill="none" stroke="#000" stroke-linecap="round" stroke-linejoin="round" stroke-width="5.10236"/><path d="M441.20612,148.99815l21.25543,61.95015c4.41226,12.85976,8.83432,25.74423,14.49524,38.10529a206.45991,206.45991,0,0,0,31.19858,48.65964c5.15286-13.78558,9.22427-27.94684,13.29013-42.09119,10.07648-35.054,20.24176-70.74551,19.60461-107.21347" fill="none" stroke="#000" stroke-linecap="round" stroke-linejoin="round" stroke-width="5.10236"/><path d="M593.37366,144.04391a253.75684,253.75684,0,0,0,29.69525,73.00694c6.316,10.47607,13.381,20.47818,20.43884,30.46954l27.40289,38.7924c7.34583-19.32953,8.62628-40.34866,9.82922-60.992q1.43033-24.54609,2.86072-49.09219c.90344-15.5043,1.807-31.05333.84729-46.55425" fill="none" stroke="#000" stroke-linecap="round" stroke-linejoin="round" stroke-width="5.10236"/><path d="M726.9613,120.02873a348.54393,348.54393,0,0,0,42.431,71.45627c9.0694,11.79511,18.88354,22.99438,28.69,34.18423l30.07385,34.31654c-3.18921-24.51491.93384-49.34335.87549-74.06477-.05548-23.48746-3.88617-46.78348-7.70636-69.95825-1.13855-6.90689-2.56067-14.358-7.72241-19.08642" fill="none" stroke="#000" stroke-linecap="round" stroke-linejoin="round" stroke-width="5.10236"/><path d="M849.063,84.44355c7.77374,13.27648,15.56781,26.58377,24.74585,38.93122,6.6308,8.92056,13.95459,17.3,21.26959,25.66869L951.30524,213.369,944.54883,46.928" fill="none" stroke="#000" stroke-linecap="round" stroke-linejoin="round" stroke-width="5.10236"/><path d="M974.9469,54.582c-11.52258,54.19981-5.46185,110.40359.64624,165.477q39.311-66.29434,85.0509-128.48389" fill="none" stroke="#000" stroke-linecap="round" stroke-linejoin="round" stroke-width="5.10236"/><path d="M1098.19226,102.73869c-3.34021,14.30335.07532,29.22458,3.60486,43.48238q14.94489,60.37017,32.82629,119.96243a633.99748,633.99748,0,0,1,56.39294-135.4306" fill="none" stroke="#000" stroke-linecap="round" stroke-linejoin="round" stroke-width="5.10236"/><path d="M1228.44873,135.9873c12.09412,45.50833,24.52551,91.80612,49.61865,131.65094.71326,1.13263,1.80957,2.41891,3.105,2.08182.994-.25864,1.4845-1.35043,1.8385-2.31464A1012.8859,1012.8859,0,0,0,1318.692,147.95509" fill="none" stroke="#000" stroke-linecap="round" stroke-linejoin="round" stroke-width="5.10236"/><path d="M1360.324,151.04117c17.8103,50.93379,37.55188,101.58693,65.93384,147.4772q20.05023-73.99789,33.30517-149.61713" fill="none" stroke="#000" stroke-linecap="round" stroke-linejoin="round" stroke-width="5.10236"/><path d="M1514.663,146.40421c3.42468,13.73125,10.35083,26.29124,17.20532,38.67233l56.60938,102.25223c6.36975-19.0571,7.78479-39.35931,9.151-59.40627q3.23822-47.51468,6.4762-95.02936" fill="none" stroke="#000" stroke-linecap="round" stroke-linejoin="round" stroke-width="5.10236"/><path d="M1647.22791,122.9011A482.46054,482.46054,0,0,0,1746.817,254.60376q.1441-78.88953-2.55164-157.75018" fill="none" stroke="#000" stroke-linecap="round" stroke-linejoin="round" stroke-width="5.10236"/><path d="M1768.95068,86.48515a828.90327,828.90327,0,0,0,103.22314,127.96318c-4.91382-51.93019-9.34595-108.81435-13.90405-163.10652" fill="none" stroke="#000" stroke-linecap="round" stroke-linejoin="round" stroke-width="5.10236"/></g><g id="0bc3dbe9-8615-4f76-8519-a356026dabc9" data-name="aad440d2-9b3f-4f6f-831e-a7443dfbb405"><path d="M1407.37012,153.6317q-38.71289.00073-77.23437-2.94629c-130.95605-10.019-258.51074-45.19287-379.12646-104.53857C554.9267,223.25182,235.04,143.55211,36.34079,45.409a3.54347,3.54347,0,0,1,3.13867-6.354c197.58984,97.59472,515.88382,176.80859,910.15189-.05615l1.52295-.68311,1.49658.73926c200.729,99.14551,522.48877,180.33155,915.43213,4.06348a3.54327,3.54327,0,0,1,2.90039,6.46582C1716.80273,118.74742,1561.18945,153.62779,1407.37012,153.6317Z"/><path d="M57.998,224.53014a2.55157,2.55157,0,0,1-2.13965-1.16162c-6.81445-10.49414-6.814-23.76416-6.81348-34.42676l.00342-65.38672c.00146-23.91113.00293-48.63623,3.52148-72.812a2.551,2.551,0,0,1,5.04883.73438c-3.46484,23.811-3.46631,48.34814-3.46777,72.07763l-.00342,65.38672c-.00049,8.66162-.00049,19.16016,3.90479,27.8125,25.78564-44.86279,53.68652-89.18213,82.97265-131.79492a2.55111,2.55111,0,0,1,4.20508,2.88965h0c-30.06738,43.75049-58.67139,89.3042-85.01709,135.396a2.55133,2.55133,0,0,1-2.14258,1.28418C58.04635,224.52965,58.02194,224.53014,57.998,224.53014Z"/><path d="M215.91843,269.16489a2.55118,2.55118,0,0,1-2.3374-1.53027A479.42372,479.42372,0,0,1,174.11179,101.369a2.55116,2.55116,0,0,1,5.09473-.27832,474.25662,474.25662,0,0,0,36.42723,158.3784A1217.99632,1217.99632,0,0,1,270.31931,125.4276a2.55108,2.55108,0,0,1,4.60107,2.205l-.00049.001a1212.57363,1212.57363,0,0,0-56.58105,139.78757,2.55188,2.55188,0,0,1-2.30566,1.74121C215.99458,269.16394,215.95651,269.16489,215.91843,269.16489Z"/><path d="M360.8403,297.03745a2.55111,2.55111,0,0,1-2.29687-1.44287c-24.79883-51.41846-38.99414-107.45752-52.72217-161.65137a2.55126,2.55126,0,0,1,4.94629-1.25293c13.14014,51.874,26.70947,105.44434,49.58154,154.78711a1376.04853,1376.04853,0,0,0,35.74707-142.6958,2.55118,2.55118,0,0,1,5.0101.96594l-.00131.00671a1380.86465,1380.86465,0,0,1-37.82959,149.49561,2.55084,2.55084,0,0,1-2.24854,1.78076C360.96433,297.035,360.90231,297.03745,360.8403,297.03745Z"/><path d="M508.15524,300.2645a2.552,2.552,0,0,1-1.93359-.88672,208.60205,208.60205,0,0,1-31.584-49.26221c-5.7168-12.48193-10.22754-25.627-14.58936-38.33936L438.79294,149.826a2.55123,2.55123,0,0,1,4.82617-1.65625L464.87448,210.12c4.32178,12.59521,8.79053,25.61914,14.40186,37.87109A203.53851,203.53851,0,0,0,507.269,292.702c4.43994-12.44189,8.13724-25.30469,11.72513-37.78467C528.896,220.4686,539.13525,184.8475,538.49951,148.453a2.55116,2.55116,0,0,1,5.10144-.09512l.00012.00626c.64941,37.1582-9.69727,73.15283-19.70361,107.9624-4.01172,13.957-8.16016,28.38867-13.35254,42.27979a2.55132,2.55132,0,0,1-1.94141,1.61865A2.58182,2.58182,0,0,1,508.15524,300.2645Z"/><path d="M670.9101,288.86411a2.55092,2.55092,0,0,1-2.083-1.0791l-27.40283-38.79248c-6.9668-9.86182-14.17041-20.05859-20.54053-30.62451a255.43858,255.43858,0,0,1-29.99414-73.74268,2.551,2.551,0,0,1,4.96564-1.1721l.00214.009a250.34088,250.34088,0,0,0,29.396,72.271c6.2749,10.40771,13.42432,20.52783,20.33789,30.31494l24.55664,34.76367c5.84424-17.85986,6.96143-37.041,8.04492-55.63965l2.86084-49.0918c.88477-15.18311,1.79932-30.88281.84766-46.248a2.55127,2.55127,0,0,1,5.09277-.31543c.97021,15.67139.04688,31.52686-.84668,46.86035l-2.86084,49.0918c-1.19971,20.58887-2.43994,41.87892-9.99121,61.75A2.55508,2.55508,0,0,1,670.9101,288.86411Z"/><path d="M828.15717,262.537a2.54913,2.54913,0,0,1-1.91943-.86963L796.16351,227.351c-9.67139-11.03613-19.67187-22.44775-28.79395-34.31055A351.08146,351.08146,0,0,1,724.62787,121.06a2.55121,2.55121,0,1,1,4.667-2.0625h0A345.93815,345.93815,0,0,0,771.41449,189.93c9.022,11.73291,18.96777,23.08252,28.58594,34.05762L824.829,252.31866c-.94287-13.231-.15479-26.564.61182-39.52881.52148-8.8208,1.06055-17.94189,1.03955-26.86279-.05518-23.34131-3.92773-46.832-7.67236-69.54932-1.19775-7.26514-2.5459-13.60547-6.92822-17.62012a2.55122,2.55122,0,0,1,3.44629-3.7627h0c6.04,5.5332,7.47119,14.21436,8.51611,20.55273,3.77783,22.917,7.68457,46.61426,7.74072,70.36769.02148,9.07715-.52295,18.27783-1.04883,27.17529-.90723,15.3457-1.84521,31.21387.15186,46.56592a2.55147,2.55147,0,0,1-2.52881,2.88037Z"/><path d="M951.3056,215.92027a2.551,2.551,0,0,1-1.92139-.87207l-56.22656-64.32568c-7.22754-8.269-14.70166-16.81982-21.396-25.82568-9.271-12.47266-17.21631-26.0415-24.90039-39.16406a2.55127,2.55127,0,1,1,4.40332-2.57812c7.61426,13.00391,15.48779,26.4502,24.5918,38.69823,6.57422,8.84424,13.98047,17.31738,21.14307,25.51123l51.46289,58.87646-6.46289-159.209a2.55117,2.55117,0,1,1,5.09814-.207l6.75684,166.44092a2.55214,2.55214,0,0,1-2.44739,2.65273H951.407c-.03375.00133-.06763.002-.10138.00206Z"/><path d="M975.59375,222.61021a2.52342,2.52342,0,0,1-.53809-.05762,2.55066,2.55066,0,0,1-1.998-2.2124c-6.061-54.645-12.32812-111.15088-.60645-166.28857a2.55137,2.55137,0,0,1,4.99261,1.05444h0l-.0014.00656c-11.01562,51.81543-5.86816,105.22852-.14941,157.11475,25.09277-41.84424,52.418-82.9077,81.29681-122.16406a2.55087,2.55087,0,1,1,4.11792,3.01171l-.00586.008-.00268.00369c-30.27832,41.16064-58.84668,84.31786-84.91162,128.27343A2.55156,2.55156,0,0,1,975.59375,222.61021Z"/><path d="M1134.623,268.73474a2.55107,2.55107,0,0,1-2.44336-1.81787c-11.874-39.57178-22.92969-79.97363-32.85937-120.08252-3.9541-15.97363-6.95508-30.36084-3.6123-44.67578a2.5512,2.5512,0,0,1,4.96875,1.16016c-3.085,13.21-.19629,26.96777,3.59668,42.28955,9.21973,37.24072,19.41211,74.73486,30.3291,111.57959A636.714,636.714,0,0,1,1188.791,129.50572a2.55118,2.55118,0,0,1,4.4519,2.49294l-.00073.00121a631.5381,631.5381,0,0,0-56.166,134.88478,2.55148,2.55148,0,0,1-2.43652,1.8501Z"/><path d="M1280.752,272.32507c-1.32324,0-3.14355-.62646-4.84375-3.32812-25.52051-40.5249-37.92676-87.208-49.9248-132.35449a2.5514,2.5514,0,0,1,4.93164-1.31055c11.89941,44.77734,24.2041,91.0791,49.31152,130.94678.11328.18115.21777.33154.31055.45557.02539-.06348.05078-.13232.07813-.207A1013.73331,1013.73331,0,0,0,1316.208,147.37682a2.55075,2.55075,0,0,1,4.96875,1.15625,1018.613,1018.613,0,0,1-35.77148,119.752c-.3291.897-1.20312,3.28223-3.58887,3.90381A4.24675,4.24675,0,0,1,1280.752,272.32507Z"/><path d="M1426.25684,301.0697a2.55274,2.55274,0,0,1-2.16895-1.20947c-29.1748-47.17187-49.04492-98.998-66.17187-147.97656a2.55125,2.55125,0,1,1,4.81641-1.68457c16.418,46.95166,35.36035,96.51709,62.60742,141.91016,12.61719-47.23486,23.28027-95.5332,31.71094-143.64844a2.551,2.551,0,0,1,5.02539.88086h0c-8.79981,50.21973-20.02246,100.63477-33.35645,149.84375A2.5518,2.5518,0,0,1,1426.25684,301.0697Z"/><path d="M1588.47656,289.88022a2.55242,2.55242,0,0,1-2.23145-1.31543l-56.60937-102.25244c-6.84277-12.36084-13.91894-25.14258-17.44824-39.291a2.55136,2.55136,0,1,1,4.95117-1.23437h0c3.36621,13.498,10.27734,25.98145,16.96191,38.05371l53.70117,96.99953c4.83691-17.22168,6.07813-35.42773,7.28223-53.09082l6.47559-95.02979a2.5508,2.5508,0,1,1,5.09082.33138l-.00061.00922-.00037.00609-6.47559,95.02979c-1.3584,19.939-2.76367,40.55664-9.27637,60.0415a2.55145,2.55145,0,0,1-2.18652,1.73193C1588.63281,289.87683,1588.55469,289.88022,1588.47656,289.88022Z"/><path d="M1746.81836,257.15515a2.55106,2.55106,0,0,1-1.74219-.68652A482.49611,482.49611,0,0,1,1644.959,124.06822a2.55112,2.55112,0,0,1,4.53711-2.334,477.30051,477.30051,0,0,0,94.77637,126.95557c.02344-50.41016-.83594-101.42822-2.55664-151.74951a2.55124,2.55124,0,1,1,5.09912-.18525l.00012.00186.00037.00956c1.78906,52.34766,2.64844,105.45361,2.55273,157.84229a2.55058,2.55058,0,0,1-2.5498,2.54639Z"/><path d="M1872.17481,216.99937a2.54866,2.54866,0,0,1-1.81738-.76025,832.54673,832.54673,0,0,1-103.541-128.35693,2.55124,2.55124,0,0,1,4.26953-2.794,827.53157,827.53157,0,0,0,97.875,122.42089c-3.30762-35.55957-6.43652-73.61229-9.46875-110.48779-1.25391-15.24756-2.50488-30.45605-3.76465-45.46631a2.55093,2.55093,0,0,1,5.084-.42676h0c1.26074,15.01318,2.51172,30.22461,3.76563,45.47461,3.23633,39.35449,6.583,80.04883,10.13672,117.605a2.552,2.552,0,0,1-2.30127,2.78024h0q-.11847.01119-.23779.01126Z"/></g></svg>