<?xml version='1.0' encoding='utf-8'?>
<svg xmlns="http://www.w3.org/2000/svg" width="200.71185mm" height="129.15414mm" id="svg3923" version="1.1"> <defs id="defs3925"/> <metadata id="metadata3928"> </metadata> <g id="layer1" transform="translate(16.382483,-365.75232)"> <g id="g4517"> <path id="path3836" d="m 35.88667,418.05924 c -1.543945,36.84892 -6.681747,75.13538 1.577562,108.063 l 68.623948,-86.76591 -0.78878,0.78878" style="fill:#fff100;fill-opacity:1;stroke:#000000;stroke-width:1px;stroke-linecap:butt;stroke-linejoin:miter;stroke-opacity:1"/> <path id="path3838" d="m 147.10479,450.39926 c 2.92072,28.35359 -0.64342,49.29592 15.77562,93.07616 L 221.2502,465.3861 v 0" style="fill:#cbff00;fill-opacity:1;stroke:#000000;stroke-width:1px;stroke-linecap:butt;stroke-linejoin:miter;stroke-opacity:1"/> <path id="path3840" d="m 263.84438,471.69635 35.49514,93.86494 c 21.7388,-26.5977 34.49624,-57.68607 48.11564,-88.34347" style="fill:#ff5555;stroke:#000000;stroke-width:1px;stroke-linecap:butt;stroke-linejoin:miter;stroke-opacity:1"/> <path id="path3842" d="m 391.6269,475.64025 c 8.67416,36.02831 22.94308,55.27232 35.49515,79.66689 l 32.34002,-84.39957" style="fill:#7eabbf;fill-opacity:1;stroke:#000000;stroke-width:1px;stroke-linecap:butt;stroke-linejoin:miter;stroke-opacity:1"/> <path id="path3844" d="m 498.90112,462.23098 c 20.05445,35.94399 48.39316,56.97631 78.8781,74.14541 0.58082,-30.49953 4.26354,-60.99906 -7.09903,-91.49859" style="fill:#fff100;fill-opacity:1;stroke:#000000;stroke-width:1px;stroke-linecap:butt;stroke-linejoin:miter;stroke-opacity:1"/> <path id="path3846" d="m 609.33046,429.89096 c 17.74557,25.57466 36.44676,48.76026 58.36979,63.89126 l 11.04294,-96.23129" style="fill:#cbff00;fill-opacity:1;stroke:#000000;stroke-width:1px;stroke-linecap:butt;stroke-linejoin:miter;stroke-opacity:1"/> <path id="path3834" d="M -16.131372,400.04708 C 284.75653,515.68129 535.93355,499.35754 732.98229,366.33249" style="fill:none;stroke:#000000;stroke-width:1.39999998;stroke-linecap:butt;stroke-linejoin:miter;stroke-miterlimit:4;stroke-dasharray:none;stroke-opacity:1"/> <path id="path3868" d="m 46.929604,545.05298 7.099029,88.34348 c 20.030011,-18.41118 39.503495,-37.518 51.270767,-66.25761" style="fill:#7eabbf;fill-opacity:1;stroke:#000000;stroke-width:1px;stroke-linecap:butt;stroke-linejoin:miter;stroke-opacity:1"/> <path id="path3870" d="m 164.45797,584.49203 c 9.97222,36.42754 10.67927,57.41312 14.98684,84.39957 20.0582,-8.66178 34.24598,-38.84843 48.11564,-70.20151" style="fill:#ff5555;fill-opacity:1;stroke:#000000;stroke-width:1px;stroke-linecap:butt;stroke-linejoin:miter;stroke-opacity:1"/> <path id="path3872" d="m 264.63316,602.634 c 2.577,36.02074 17.44148,61.80191 32.34002,87.55469 l 51.27077,-76.51176" style="fill:#cbff00;fill-opacity:1;stroke:#000000;stroke-width:1px;stroke-linecap:butt;stroke-linejoin:miter;stroke-opacity:1"/> <path id="path3874" d="m 385.31665,616.83205 c 9.20245,38.01402 18.40489,52.1724 27.60734,65.46883 17.05722,-19.5036 29.94233,-40.19923 32.34002,-63.89126" style="fill:#fff100;fill-opacity:1;stroke:#000000;stroke-width:1px;stroke-linecap:butt;stroke-linejoin:miter;stroke-opacity:1"/> <path id="path3876" d="m 496.53477,619.1984 c 3.27553,29.48195 18.0419,53.85687 40.22784,74.93419 l 26.02977,-75.72297" style="fill:#7eabbf;fill-opacity:1;stroke:#000000;stroke-width:1px;stroke-linecap:butt;stroke-linejoin:miter;stroke-opacity:1"/> <path id="path3878" d="m 616.42949,615.25449 c 5.72439,25.90449 21.18625,43.69443 39.43905,59.15858 13.88894,-16.27039 17.73457,-40.07325 23.66343,-62.3137" style="fill:#ff5555;fill-opacity:1;stroke:#000000;stroke-width:1px;stroke-linecap:butt;stroke-linejoin:miter;stroke-opacity:1"/> <path id="path3880" d="m 28.787641,735.93799 28.396116,88.34349 c 13.991297,-26.5416 35.716961,-51.1496 41.805391,-79.6669 l 0.78878,0.78878" style="fill:#cbff00;fill-opacity:1;stroke:#000000;stroke-width:1px;stroke-linecap:butt;stroke-linejoin:miter;stroke-opacity:1"/> <path id="path3882" d="m 152.62626,747.7697 29.97367,85.97718 c 19.59352,-26.6648 36.37485,-53.6592 48.11565,-81.24449" style="fill:#fff100;fill-opacity:1;stroke:#000000;stroke-width:1px;stroke-linecap:butt;stroke-linejoin:miter;stroke-opacity:1"/> <path id="path3884" d="m 274.88731,751.71361 c 3.12781,35.23617 25.90652,67.66497 42.59418,100.96397 l 40.22783,-100.17519" style="fill:#ff5555;fill-opacity:1;stroke:#000000;stroke-width:1px;stroke-linecap:butt;stroke-linejoin:miter;stroke-opacity:1"/> <path id="path3886" d="m 419.23424,746.98092 c 8.05707,25.24096 28.50392,50.48196 46.53808,75.72296 l 31.55124,-84.39955" style="fill:#cbff00;fill-opacity:1;stroke:#000000;stroke-width:1px;stroke-linecap:butt;stroke-linejoin:miter;stroke-opacity:1"/> <path id="path3888" d="m 565.15872,727.2614 51.27077,86.76588 c 8.27247,-32.693 17.76719,-62.33037 22.08587,-104.90785" style="fill:#fff100;fill-opacity:1;stroke:#000000;stroke-width:1px;stroke-linecap:butt;stroke-linejoin:miter;stroke-opacity:1"/> <path id="path3890" d="m 671.64416,696.49894 c 6.03621,14.06104 18.18218,31.17696 41.01661,53.63711 l -1.57756,-71.77908" style="fill:#7eabbf;fill-opacity:1;stroke:#000000;stroke-width:1px;stroke-linecap:butt;stroke-linejoin:miter;stroke-opacity:1"/> <path id="path3848-7" d="M 741.84566,660.73369 C 492.00502,815.03358 -3.7792331,730.79055 -7.4962833,730.14635" style="fill:none;stroke:#000000;stroke-width:1.39999998;stroke-linecap:butt;stroke-linejoin:miter;stroke-miterlimit:4;stroke-dasharray:none;stroke-opacity:1"/> <path id="path3848" d="M -7.4962852,515.86809 C 242.34436,670.16796 731.81837,606.43324 735.53542,605.78911" style="fill:none;stroke:#000000;stroke-width:1.39999998;stroke-linecap:butt;stroke-linejoin:miter;stroke-miterlimit:4;stroke-dasharray:none;stroke-opacity:1"/> </g> </g> </svg>